<?xml version="1.0" standalone="no"?>
<!DOCTYPE svg PUBLIC "-//W3C//DTD SVG 20010904//EN"
 "http://www.w3.org/TR/2001/REC-SVG-20010904/DTD/svg10.dtd">
<svg version="1.0" xmlns="http://www.w3.org/2000/svg"
 width="1200.000000pt" height="1200.000000pt" viewBox="0 0 1200.000000 1200.000000"
 preserveAspectRatio="xMidYMid meet">
<metadata>
Created by potrace 1.11, written by Peter Selinger 2001-2013
</metadata>
<g transform="translate(0.000000,1200.000000) scale(0.100000,-0.100000)"
fill="#000000" stroke="none">
<path d="M0 6000 l0 -6000 6000 0 6000 0 0 6000 0 6000 -6000 0 -6000 0 0
-6000z m9407 2079 l1203 -2087 -1206 -2086 -1206 -2086 -2411 2 -2411 3 -1203
2086 -1203 2087 1206 2086 1206 2086 2411 -2 2411 -3 1203 -2086z"/>
<path d="M5585 8823 c-591 -49 -1103 -245 -1554 -596 -136 -106 -366 -334
-472 -467 -691 -874 -813 -2049 -317 -3041 83 -166 211 -368 324 -509 87 -109
325 -347 434 -434 873 -696 2063 -822 3055 -322 169 86 364 210 505 322 120
96 360 340 457 465 846 1091 796 2612 -121 3641 -539 606 -1329 956 -2136 946
-74 -1 -153 -3 -175 -5z m-425 -1008 c7 -9 10 -25 6 -41 -4 -15 -2 -32 5 -40
9 -11 7 -14 -10 -14 -12 0 -24 7 -27 15 -4 8 -10 15 -15 15 -5 0 -9 -7 -9 -15
0 -8 -7 -15 -15 -15 -12 0 -15 13 -15 55 l0 55 34 0 c18 0 39 -7 46 -15z m975
-345 c116 -17 225 -49 322 -95 115 -54 167 -90 260 -178 133 -127 226 -290
281 -496 22 -84 25 -116 25 -261 1 -176 -10 -243 -58 -381 -31 -91 -92 -204
-149 -277 -47 -62 -155 -168 -198 -196 l-26 -17 289 -469 c288 -467 289 -468
289 -524 l0 -56 -424 0 -424 0 -253 435 -253 435 -193 0 -193 0 0 -435 0 -435
-380 0 -380 0 0 1480 0 1480 698 0 c408 0 726 -5 767 -10z"/>
<path d="M5110 7790 c0 -5 7 -10 15 -10 8 0 15 5 15 10 0 6 -7 10 -15 10 -8 0
-15 -4 -15 -10z"/>
<path d="M5430 6430 l0 -372 303 4 302 3 57 28 c168 82 236 332 146 529 -33
72 -66 108 -130 143 l-53 30 -312 3 -313 3 0 -371z"/>
</g>
</svg>
