<svg xmlns="http://www.w3.org/2000/svg" width="4360.242" height="63.274" viewBox="0 0 4360.242 63.274">
  <g id="svgn" transform="translate(0 62.852)">
    <path id="Path_1" data-name="Path 1" d="M33.43-60.694c-1.231,1.436-2.666,6.768-3.487,11.9-1.231,8.2-2.256,9.639-7.793,11.9-5.742,2.051-7.178,1.846-13.126-2.666C5.332-42.441,1.846-44.7,1.231-44.7S0-35.058,0-23.163V-1.629H10.049c6.563,0,10.87-1.025,12.716-3.281,4.512-5.332,14.151-9.434,23.175-9.434,9.639,0,16.2,2.461,24.406,9.024C75.473-1.219,78.549-.6,95.366-.6c16.612-.205,19.894-.82,24-4.512,13.126-11.69,28.1-12.51,43.889-2.256C172.685-1.013,174.121-.6,192.169-.6c16.2-.205,19.483-.82,23.585-4.512,13.126-11.69,28.1-12.51,43.889-2.256C269.282-.808,270.308-.6,289.586-.808c17.228,0,20.714-.615,24.611-4.307,13.126-11.69,28.1-12.51,43.889-2.256C367.725-.808,368.75-.6,388.029-.808c17.228,0,20.714-.615,24.611-4.307,13.126-11.69,28.1-12.51,43.889-2.051C465.963-1.013,467.4-.6,485.446-.6c16.2-.205,19.483-.82,23.585-4.512,13.126-11.69,28.1-12.51,43.889-2.051C562.355-1.013,563.79-.6,581.838-.6c16.2-.205,19.483-.82,23.585-4.512,7.383-6.563,13.536-9.229,22.765-9.229,9.844,0,16.407,2.461,24.611,9.024C657.926-1.219,661-.6,677.82-.6c16.612-.205,19.894-.82,24-4.512,13.126-11.69,28.1-12.51,43.889-2.256C755.344-.808,756.369-.6,775.647-.808c17.227,0,20.714-.615,24.611-4.307,13.126-11.69,28.1-12.51,43.889-2.256C853.581-1.013,855.017-.6,873.065-.6c16.2-.205,19.483-.82,23.585-4.512,13.126-11.69,28.1-12.51,43.889-2.256C950.178-.808,951.2-.6,970.482-.808c17.227,0,20.714-.615,24.611-4.307,13.126-11.69,28.1-12.51,43.889-2.256,9.639,6.563,10.665,6.768,29.943,6.563,17.228,0,20.714-.615,24.611-4.307,12.921-11.69,28.1-12.51,43.684-2.256,9.639,6.358,10.665,6.563,31.174,6.563,18.458-.205,21.739-.615,25.841-4.307,12.921-11.69,27.892-12.51,43.684-2.256,9.434,6.358,10.87,6.768,28.917,6.768,16.2-.205,19.484-.82,23.585-4.512,13.126-11.69,28.1-12.51,43.889-2.256,9.639,6.563,10.665,6.768,29.943,6.563,17.228,0,20.714-.615,24.611-4.307,13.126-11.69,28.1-12.51,43.889-2.256C1442.392-.808,1443.418-.6,1462.7-.808c17.228,0,20.714-.615,24.611-4.307,13.126-11.69,28.1-12.51,43.889-2.256,9.434,6.358,10.87,6.768,28.917,6.768,16.2-.205,19.484-.82,23.585-4.512,12.921-11.69,28.1-12.51,43.684-2.256,9.639,6.358,10.665,6.563,31.174,6.563,18.458-.205,21.739-.615,25.841-4.307,12.921-11.69,27.892-12.51,43.684-2.256C1737.516-1.013,1738.951-.6,1757-.6c16.2-.205,19.484-.82,23.585-4.512,13.126-11.69,28.1-12.51,43.889-2.256,9.639,6.563,10.664,6.768,29.943,6.563,17.228,0,20.714-.615,24.611-4.307,13.126-11.69,28.1-12.51,43.889-2.256,9.639,6.563,10.665,6.768,29.943,6.563,17.228,0,20.714-.615,24.611-4.307,13.126-11.69,28.1-12.51,43.889-2.256C2031-.808,2032.024-.6,2050.687-1.013c15.792-.41,20.1-1.231,23.585-4.307,6.973-6.358,13.331-9.024,22.355-9.024,9.844,0,16.407,2.461,24.611,9.024,5.127,4.1,8.2,4.717,25.021,4.717,16.612-.205,19.894-.82,24-4.512,13.125-11.69,28.1-12.51,43.889-2.256,9.434,6.358,10.87,6.768,28.918,6.768,16.2-.205,19.484-.82,23.585-4.512,12.921-11.69,28.1-12.51,43.479-2.461,8.614,5.948,11.69,6.563,28.507,7.588,17.843.82,19.279.615,25.021-4.1,15.177-12.716,27.482-13.331,44.094-2.666,10.459,6.768,12.1,7.178,28.712,7.178,17.433,0,18.868-.615,33.02-9.639,10.254-6.973,21.329-6.153,33.84,2.051,9.434,6.153,11.075,6.563,28.918,6.563,16.2,0,19.484-.615,23.585-4.307,13.125-11.9,28.1-12.716,43.889-2.461,9.639,6.563,10.665,6.768,29.943,6.563,17.227,0,20.714-.615,24.611-4.307,13.125-11.69,28.1-12.51,43.889-2.256C2707.793-.808,2708.818-.6,2728.1-.808c17.227,0,20.714-.615,24.611-4.307,13.125-11.69,28.1-12.51,43.889-2.051,9.434,6.153,10.87,6.563,28.918,6.563,16.2-.205,19.484-.82,23.585-4.512,13.126-11.69,28.1-12.51,43.889-2.051,9.434,6.153,10.87,6.563,28.918,6.563,16.2-.205,19.483-.82,23.585-4.512,13.125-11.69,28.1-12.51,43.889-2.051C2998.815-1.013,3000.25-.6,3018.3-.6c16.2-.205,19.483-.82,23.585-4.512,7.383-6.563,13.536-9.229,22.765-9.229,9.844,0,16.407,2.461,24.611,9.024,5.127,4.1,8,4.717,26.251,4.512,17.432,0,20.919-.615,24.816-4.307,7.383-6.563,13.741-9.229,22.765-9.229,9.844,0,16.407,2.461,24.611,9.024,5.127,4.1,8.2,4.717,25.021,4.717,16.612-.205,19.894-.82,24-4.512,13.125-11.69,28.1-12.51,43.889-2.256,9.639,6.563,10.665,6.768,29.943,6.563,17.227,0,20.714-.615,24.611-4.307,13.125-11.69,28.1-12.51,43.889-2.256,9.639,6.563,10.665,6.768,29.943,6.563,17.227,0,20.714-.615,24.611-4.307,12.92-11.69,28.1-12.51,43.684-2.256,9.639,6.358,10.665,6.563,31.174,6.563,18.458-.205,21.74-.615,25.841-4.307,7.178-6.563,13.536-9.229,22.56-9.229,9.844,0,16.407,2.461,24.611,9.024,5.127,4.1,8.2,4.717,25.021,4.717,16.612-.205,19.894-.82,24-4.512,13.126-11.69,28.1-12.51,43.889-2.256,9.639,6.563,10.665,6.768,29.943,6.563,17.227,0,20.714-.615,24.611-4.307,13.125-11.69,28.1-12.51,43.889-2.256,9.639,6.563,10.665,6.768,29.943,6.563,17.227,0,20.714-.615,24.611-4.307,13.125-11.69,28.1-12.51,43.889-2.051C3880.7-1.013,3882.134-.6,3900.182-.6c16.2-.205,19.483-.82,23.585-4.512,12.921-11.69,28.1-12.51,43.684-2.256,9.639,6.358,10.665,6.563,31.174,6.563,18.458-.205,21.74-.615,25.841-4.307,12.921-11.69,27.892-12.51,43.684-2.051,9.434,6.153,10.87,6.563,28.918,6.563,16.2-.205,19.483-.82,23.585-4.512,13.126-11.69,28.1-12.51,43.889-2.256,9.639,6.563,10.665,6.768,29.943,6.563,17.228,0,20.714-.615,24.61-4.307,13.126-11.69,28.1-12.51,43.889-2.256,9.639,6.563,10.665,6.768,29.943,6.563,17.228,0,20.714-.615,24.611-4.307a82.105,82.105,0,0,1,9.434-6.768c5.947-3.076,21.125-3.076,26.662-.205a24.924,24.924,0,0,0,5.333,2.256c2.666,0,.82-26.457-2.461-38.967l-3.486-13.331-11.075-.615c-5.948-.41-11.9.41-13.536,1.641-1.436,1.231-3.076,6.563-3.9,11.9-1.025,8.614-2.051,10.049-7.793,12.305-5.743,2.051-7.178,1.846-14.766-3.692-4.512-3.487-9.229-6.153-10.46-6.153s-5.947,2.666-10.459,6.153c-7.589,5.537-9.024,5.743-14.767,3.692-5.332-2.051-6.562-4.1-9.023-13.741l-2.667-11.485-10.87-.615c-6.153-.41-12.1.41-13.741,1.641-1.436,1.231-3.076,6.563-3.9,11.9-1.025,8.614-2.051,10.049-7.793,12.305-5.743,2.051-7.178,1.846-14.766-3.692-4.512-3.487-9.229-6.153-10.46-6.153s-5.948,2.666-10.459,6.153c-7.588,5.537-9.024,5.743-14.766,3.692-5.333-2.051-6.563-4.1-9.024-13.741l-2.667-11.485-10.87-.615c-6.152-.41-12.1.41-13.741,1.641-1.436,1.231-3.076,6.563-3.9,11.9-1.025,8.614-2.051,10.049-7.793,12.305-6.152,2.256-7.178,2.051-14.356-3.692-4.1-3.487-8.614-6.153-9.844-6.153s-5.742,2.666-9.844,6.153c-7.178,5.537-8.2,5.948-14.151,3.692-5.538-2.051-6.768-3.9-9.229-13.741l-2.666-11.485-10.87-.615c-6.153-.41-12.1.41-13.741,1.641-1.435,1.231-3.076,6.563-3.9,11.9-1.025,8.614-2.051,10.049-7.793,12.305-5.742,2.051-7.178,1.846-14.767-3.692-10.254-7.588-12.715-7.588-22.97,0-7.588,5.537-9.024,5.743-14.766,3.692-5.333-2.051-6.563-4.1-9.024-13.741l-2.666-11.485-10.87-.615c-6.153-.41-12.1.41-13.741,1.641-1.436,1.231-3.076,6.563-3.9,11.9-1.025,8.614-2.051,10.049-7.793,12.305-6.153,2.256-7.178,2.051-14.356-3.692-4.1-3.487-8.614-6.153-9.844-6.153S3893-44.082,3888.9-40.6c-7.178,5.537-8.2,5.948-14.151,3.692-5.537-2.051-6.768-3.9-9.229-13.741l-2.666-11.485-10.869-.615c-6.153-.41-12.1.41-13.741,1.641-1.436,1.231-3.076,6.563-3.9,11.9-1.025,8.614-2.051,10.049-7.793,12.305-5.743,2.051-7.178,1.846-14.767-3.692-4.512-3.487-9.229-6.153-10.459-6.153s-5.948,2.666-10.459,6.153c-7.588,5.537-9.024,5.743-14.766,3.692-5.333-2.051-6.563-4.1-9.024-13.741l-2.666-11.485-10.87-.615c-6.153-.41-12.1.41-13.741,1.641-1.436,1.231-3.076,6.563-3.9,11.9-1.025,8.614-2.051,10.049-7.793,12.305-5.743,2.051-7.178,1.846-14.767-3.692-4.512-3.487-9.229-6.153-10.459-6.153s-5.948,2.666-10.459,6.153c-7.588,5.537-9.024,5.743-14.766,3.692-5.333-2.051-6.563-4.1-9.024-13.741L3665.97-62.13l-10.87-.615c-6.153-.41-12.1.41-13.741,1.641-1.436,1.231-3.076,6.563-3.9,11.9-1.025,8.614-2.051,10.049-7.793,12.305-6.153,2.256-7.178,2.051-14.356-3.692-4.1-3.487-8.614-6.153-9.844-6.153s-5.742,2.666-9.844,6.153c-7.178,5.537-8.2,5.948-14.151,3.692-5.537-2.051-6.768-3.9-9.229-13.741l-2.666-11.485-10.869-.615c-6.153-.41-12.1.41-13.741,1.641-1.436,1.231-3.076,6.563-3.9,11.9-1.025,8.614-2.051,10.049-7.793,12.305-5.743,2.051-7.178,1.846-14.767-3.692-10.254-7.588-12.716-7.588-22.97,0-7.588,5.537-9.024,5.743-14.766,3.692-5.333-2.051-6.563-4.1-9.024-13.741l-2.666-11.485-10.87-.615c-6.153-.41-12.1.41-13.741,1.641-1.436,1.231-3.076,6.563-3.9,11.9-1.026,8.614-2.051,10.049-7.793,12.305-5.742,2.051-7.178,1.846-14.766-3.692-4.512-3.487-9.229-6.153-10.46-6.153s-5.948,2.666-10.459,6.153c-7.588,5.537-9.024,5.743-14.766,3.692-5.333-2.051-6.563-4.1-9.024-13.741l-2.666-11.485-10.869-.615c-6.153-.41-12.1.41-13.741,1.641-1.436,1.231-3.076,6.563-3.9,11.9-1.025,8.614-2.051,10.049-7.793,12.305-5.743,2.051-7.178,1.846-14.767-3.692-4.512-3.487-9.229-6.153-10.459-6.153s-5.948,2.666-10.459,6.153c-7.588,5.537-9.024,5.743-14.766,3.692-5.333-2.051-6.563-4.1-9.024-13.741L3272.2-62.13l-10.87-.615c-6.153-.41-12.1.41-13.741,1.641-1.436,1.231-3.076,6.563-3.9,11.9-1.025,8.614-2.051,10.049-7.793,12.305-6.153,2.256-7.178,2.051-14.356-3.692-4.1-3.487-8.614-6.153-9.844-6.153s-5.742,2.666-9.844,6.153c-7.178,5.537-8.2,5.948-14.151,3.692-5.538-2.051-6.768-3.9-9.229-13.741l-2.666-11.485-10.87-.615c-6.153-.41-12.1.41-13.741,1.641-1.436,1.231-3.076,6.563-3.9,11.9-1.026,8.614-2.051,10.049-7.793,12.305-5.743,2.051-7.178,1.846-14.767-3.692-4.512-3.487-9.229-6.153-10.459-6.153s-5.948,2.666-10.46,6.153c-7.588,5.537-9.024,5.743-14.766,3.692-5.333-2.051-6.563-4.1-9.024-13.741l-2.666-11.485-10.869-.615c-6.153-.41-12.1.41-13.741,1.641-1.436,1.231-3.076,6.563-3.9,11.9-1.025,8.614-2.051,10.049-7.793,12.305-6.153,2.256-7.178,2.051-14.356-3.692-4.1-3.487-8.614-6.153-9.844-6.153s-5.742,2.666-9.844,6.153c-7.178,5.537-8.2,5.948-14.151,3.692-5.538-2.051-6.768-3.9-9.229-13.741l-2.666-11.485-10.87-.615c-6.153-.41-12.1.41-13.741,1.641-1.436,1.231-3.076,6.563-3.9,11.9-1.026,8.614-2.051,10.049-7.793,12.305-6.153,2.256-7.178,2.051-14.356-3.692-4.1-3.487-8.614-6.153-9.844-6.153s-5.742,2.666-9.844,6.153c-7.178,5.537-8.2,5.948-14.151,3.692-5.538-2.051-6.768-3.9-9.229-13.741L2884.58-62.13l-10.87-.615c-6.153-.41-12.1.41-13.741,1.641-1.436,1.231-3.076,6.563-3.9,11.9-1.025,8.614-2.051,10.049-7.793,12.305-6.153,2.256-7.178,2.051-14.356-3.692-4.1-3.487-8.614-6.153-9.844-6.153s-5.742,2.666-9.844,6.153c-7.178,5.537-8.2,5.948-14.151,3.692-5.537-2.051-6.768-3.9-9.229-13.741l-2.666-11.485-10.869-.615c-6.153-.41-12.1.41-13.741,1.641-1.436,1.231-3.076,6.563-3.9,11.9-1.025,8.614-2.051,10.049-7.793,12.305-5.743,2.051-7.178,1.846-14.767-3.692-4.512-3.487-9.229-6.153-10.459-6.153s-5.948,2.666-10.459,6.153c-7.588,5.537-9.024,5.743-14.766,3.692-5.333-2.051-6.563-4.1-9.024-13.741l-2.666-11.485-10.87-.615c-6.153-.41-12.1.41-13.741,1.641-1.436,1.231-3.076,6.563-3.9,11.9-1.025,8.614-2.051,10.049-7.793,12.305-5.743,2.051-7.178,1.846-14.767-3.692-4.512-3.487-9.229-6.153-10.459-6.153s-5.948,2.666-10.459,6.153c-7.588,5.537-9.024,5.743-14.766,3.692-5.333-2.051-6.563-4.1-9.024-13.741L2591.3-62.13l-10.87-.615c-6.153-.41-12.1.41-13.741,1.641-1.436,1.231-3.076,6.563-3.9,11.9-1.025,8.614-2.051,10.049-8,12.305-6.153,2.461-6.768,2.256-11.69-3.692-6.358-7.588-12.715-8-21.124-.82-4.717,3.9-7.588,4.922-11.485,3.9-6.563-1.641-5.537,0-8.819-13.331l-2.666-11.28-12.92-.615c-7.178-.41-14.356.41-15.792,1.641s-3.076,6.563-3.9,12.1c-1.025,8.614-2.051,10.254-6.563,11.28-3.9,1.025-7.383,0-12.921-3.692-9.639-6.768-13.946-6.563-22.355.615-6.153,5.127-7.588,5.537-12.716,3.692-4.922-1.846-6.358-4.1-8.614-13.536l-2.666-11.485-11.9-.615c-6.563-.41-13.126.41-14.767,1.641-1.436,1.231-3.076,6.563-3.9,11.9-1.026,8.409-2.051,10.049-7.178,11.9-4.922,2.051-6.768,1.436-13.536-3.487-9.844-7.383-11.69-7.383-21.124.205-7.178,5.537-8.2,5.948-14.151,3.692-5.538-2.051-6.768-3.9-9.229-13.741l-2.666-11.485-10.87-.615c-6.153-.41-12.1.41-13.741,1.641-1.436,1.231-3.076,6.563-3.9,11.9-1.025,8.614-2.051,10.049-7.793,12.305-6.153,2.256-7.178,2.051-14.356-3.692-4.1-3.487-8.614-6.153-9.844-6.153s-5.742,2.666-9.844,6.153c-7.178,5.537-8.2,5.948-14.151,3.692-5.537-2.051-6.768-3.9-9.229-13.741l-2.666-11.485-10.869-.615c-6.153-.41-12.1.41-13.741,1.641-1.436,1.231-3.076,6.563-3.9,11.9-1.025,8.614-2.051,10.049-7.793,12.305-6.153,2.256-7.178,2.051-14.356-3.692-4.1-3.487-8.614-6.153-9.844-6.153s-5.742,2.666-9.844,6.153c-7.178,5.537-8.2,5.948-14.151,3.692-5.538-2.051-6.768-3.9-9.229-13.741l-2.666-11.485-10.87-.615c-6.153-.41-12.1.41-13.741,1.641-1.436,1.231-3.076,6.563-3.9,11.9-1.025,8.614-2.051,10.049-7.793,12.305-5.742,2.051-7.178,1.846-14.766-3.692-4.512-3.487-9.024-6.153-10.049-6.153-.821,0-5.127,2.666-9.229,6.153-7.178,5.537-8.2,5.948-14.151,3.692-5.537-2.051-6.768-3.9-9.229-13.741l-2.666-11.485-10.87-.615c-6.153-.41-12.1.41-13.741,1.641-1.436,1.231-3.076,6.563-3.9,11.9-1.025,8.614-2.051,10.049-7.793,12.305-5.742,2.051-7.178,1.846-14.766-3.692-4.512-3.487-9.229-6.153-10.46-6.153s-5.948,2.666-10.459,6.153c-7.588,5.537-9.024,5.743-14.766,3.692-5.332-2.051-6.563-4.1-9.024-13.741l-2.666-11.485-10.87-.615c-6.153-.41-12.1.41-13.741,1.641-1.436,1.231-3.076,6.563-3.9,11.9-1.026,8.614-2.051,10.049-7.793,12.305-5.743,2.051-7.178,1.846-14.766-3.692-4.512-3.487-9.229-6.153-10.46-6.153s-5.948,2.666-10.46,6.153c-7.588,5.537-9.024,5.743-14.766,3.692-5.332-2.051-6.563-4.1-9.024-13.741l-2.666-11.485-10.87-.615c-6.153-.41-12.1.41-13.741,1.641-1.436,1.231-3.076,6.563-3.9,11.9-1.025,8.614-2.051,10.049-7.793,12.305-6.153,2.256-7.178,2.051-14.356-3.692-4.1-3.487-8.614-6.153-9.844-6.153s-5.742,2.666-9.844,6.153c-7.178,5.537-8.2,5.948-14.151,3.692-5.537-2.051-6.768-3.9-9.229-13.741l-2.666-11.485-10.87-.615c-6.153-.41-12.1.41-13.741,1.641-1.436,1.231-3.076,6.563-3.9,11.9-1.026,8.614-2.051,10.049-7.794,12.305-5.742,2.051-7.178,1.846-14.766-3.692-10.255-7.588-12.716-7.588-22.97,0-7.588,5.537-9.024,5.743-14.766,3.692-5.332-2.051-6.563-4.1-9.024-13.741l-2.666-11.485-10.87-.615c-6.153-.41-12.1.41-13.741,1.641-1.436,1.231-3.076,6.563-3.9,11.9-1.025,8.614-2.051,10.049-7.793,12.305-6.153,2.256-7.178,2.051-14.356-3.692-4.1-3.487-8.614-6.153-9.844-6.153s-5.742,2.666-9.844,6.153c-7.178,5.537-8.2,5.948-14.151,3.692-5.537-2.051-6.768-3.9-9.229-13.741l-2.666-11.485-10.87-.615c-6.153-.41-12.1.41-13.741,1.641-1.436,1.231-3.076,6.563-3.9,11.9-1.025,8.614-2.051,10.049-7.793,12.305-5.742,2.051-7.178,1.846-14.766-3.692-4.512-3.487-9.229-6.153-10.46-6.153s-5.948,2.666-10.459,6.153c-7.588,5.537-9.024,5.743-14.766,3.692-5.332-2.051-6.563-4.1-9.024-13.741l-2.666-11.485-10.87-.615c-6.153-.41-12.1.41-13.741,1.641-1.436,1.231-3.076,6.563-3.9,11.9-1.026,8.614-2.051,10.049-7.794,12.305-5.742,2.051-7.178,1.846-14.766-3.692-4.512-3.487-9.229-6.153-10.46-6.153s-5.948,2.666-10.46,6.153c-7.588,5.537-9.024,5.743-14.766,3.692-5.332-2.051-6.563-4.1-9.024-13.741L1325.9-62.13l-10.87-.615c-6.153-.41-12.1.41-13.741,1.641-1.436,1.231-3.076,6.563-3.9,11.9-1.025,8.614-2.051,10.049-7.793,12.305-6.153,2.256-7.178,2.051-14.356-3.692-4.1-3.487-8.614-6.153-9.844-6.153s-5.742,2.666-9.844,6.153c-7.178,5.537-8.2,5.948-14.151,3.692-5.537-2.051-6.768-3.9-9.229-13.741L1229.51-62.13l-10.87-.615c-6.153-.41-12.1.41-13.741,1.641-1.436,1.231-3.076,6.563-3.9,11.9-1.025,8.614-2.051,10.049-7.793,12.305-5.742,2.051-7.178,1.846-14.766-3.692-10.254-7.588-12.715-7.588-22.97,0-7.588,5.537-9.024,5.743-14.766,3.692-5.332-2.051-6.563-4.1-9.024-13.741l-2.666-11.485-10.87-.615c-6.153-.41-12.1.41-13.741,1.641-1.436,1.231-3.076,6.563-3.9,11.9-1.025,8.614-2.051,10.049-7.793,12.305-5.743,2.051-7.178,1.846-14.766-3.692-4.512-3.487-9.229-6.153-10.46-6.153s-5.948,2.666-10.46,6.153c-7.588,5.537-9.024,5.743-14.766,3.692-5.332-2.051-6.563-4.1-9.024-13.741l-2.666-11.485-10.87-.615c-6.153-.41-12.1.41-13.741,1.641-1.436,1.231-3.076,6.563-3.9,11.9-1.025,8.614-2.051,10.049-7.793,12.305-5.742,2.051-7.178,1.846-14.766-3.692-4.512-3.487-9.229-6.153-10.46-6.153s-5.948,2.666-10.46,6.153c-7.588,5.537-9.024,5.743-14.766,3.692-5.332-2.051-6.563-4.1-9.024-13.741L932.13-62.13l-10.87-.615c-6.153-.41-12.1.41-13.741,1.641-1.436,1.231-3.076,6.563-3.9,11.9C902.6-40.6,901.572-39.16,895.83-36.9c-6.153,2.256-7.178,2.051-14.356-3.692-4.1-3.487-8.614-6.153-9.844-6.153s-5.742,2.666-9.844,6.153c-7.178,5.537-8.2,5.948-14.151,3.692-5.537-2.051-6.768-3.9-9.229-13.741L835.739-62.13l-10.87-.615c-6.153-.41-12.1.41-13.741,1.641-1.436,1.231-3.076,6.563-3.9,11.9C806.206-40.6,805.18-39.16,799.438-36.9c-5.743,2.051-7.178,1.846-14.766-3.692-4.512-3.487-9.229-6.153-10.46-6.153s-5.948,2.666-10.46,6.153c-7.588,5.537-9.024,5.743-14.766,3.692-5.332-2.051-6.563-4.1-9.024-13.741L737.3-62.13l-10.87-.615c-6.153-.41-12.1.41-13.741,1.641-1.436,1.231-3.076,6.563-3.9,11.9-1.025,8.614-2.051,10.049-7.793,12.305-6.153,2.256-7.178,2.051-14.356-3.692-4.1-3.487-8.614-6.153-9.844-6.153s-5.742,2.666-9.844,6.153c-7.178,5.537-8.2,5.948-14.151,3.692-5.537-2.051-6.768-3.9-9.229-13.741L640.9-62.13l-10.87-.615c-6.153-.41-12.1.41-13.741,1.641-1.436,1.231-3.076,6.563-3.9,11.9C611.371-40.6,610.346-39.16,604.6-36.9c-6.153,2.256-7.178,2.051-14.356-3.692-4.1-3.487-8.614-6.153-9.844-6.153s-5.742,2.666-9.844,6.153c-7.178,5.537-8.2,5.948-14.151,3.692-5.537-2.051-6.768-3.9-9.229-13.741L544.512-62.13l-10.87-.615c-6.153-.41-12.1.41-13.741,1.641-1.436,1.231-3.076,6.563-3.9,11.9-1.025,8.614-2.051,10.049-7.793,12.305-6.153,2.256-7.178,2.051-14.356-3.692-4.1-3.487-8.614-6.153-9.844-6.153s-5.742,2.666-9.844,6.153c-7.178,5.537-8.2,5.948-14.151,3.692-5.537-2.051-6.768-3.9-9.229-13.741L448.12-62.13l-10.87-.615c-6.153-.41-12.1.41-13.741,1.641-1.436,1.231-3.076,6.563-3.9,11.9-1.025,8.614-2.051,10.049-7.793,12.305-5.743,2.051-7.178,1.846-14.766-3.692-4.512-3.487-9.229-6.153-10.46-6.153s-5.948,2.666-10.46,6.153c-7.588,5.537-9.024,5.743-14.766,3.692-5.332-2.051-6.563-4.1-9.024-13.741L349.677-62.13l-10.87-.615c-6.153-.41-12.1.41-13.741,1.641-1.436,1.231-3.076,6.563-3.9,11.9-1.025,8.614-2.051,10.049-7.793,12.305-5.742,2.051-7.178,1.846-14.766-3.692-4.512-3.487-9.229-6.153-10.46-6.153s-5.948,2.666-10.46,6.153c-7.588,5.537-9.024,5.743-14.766,3.692-5.332-2.051-6.563-4.1-9.024-13.741L251.234-62.13l-10.87-.615c-6.153-.41-12.1.41-13.741,1.641-1.436,1.231-3.076,6.563-3.9,11.9C221.7-40.6,220.676-39.16,214.934-36.9c-6.153,2.256-7.178,2.051-14.356-3.692-4.1-3.487-8.614-6.153-9.844-6.153s-5.742,2.666-9.844,6.153c-7.178,5.537-8.2,5.948-14.151,3.692-5.537-2.051-6.768-3.9-9.229-13.741L154.842-62.13l-10.87-.615c-6.153-.41-12.1.41-13.741,1.641-1.436,1.231-3.076,6.563-3.9,11.9C125.31-40.6,124.284-39.16,118.542-36.9c-6.153,2.256-7.178,2.051-14.356-3.692-4.1-3.487-8.614-6.153-9.844-6.153S88.6-44.082,84.5-40.6c-7.178,5.537-8.2,5.948-14.151,3.692-5.537-2.051-6.768-3.9-9.229-13.741L58.45-62.13l-11.485-.615C39.377-63.156,34.865-62.335,33.43-60.694Z" transform="translate(0 0)" fill="#002259"/>
  </g>
</svg>
