<svg xmlns="http://www.w3.org/2000/svg" width="19.147" height="19.15" viewBox="0 0 19.147 19.15">
  <g id="menu" transform="translate(-0.798 0.406)">
    <path id="Path_1" data-name="Path 1" d="M21.48,0H1.263A1.186,1.186,0,0,0,0,1.084V3.251A1.186,1.186,0,0,0,1.263,4.334H21.48a1.186,1.186,0,0,0,1.263-1.084V1.084A1.186,1.186,0,0,0,21.48,0Zm0,0" transform="translate(0.798 15.676) rotate(-45)"/>
    <path id="Path_3" data-name="Path 3" d="M21.48,256H1.263A1.186,1.186,0,0,0,0,257.083v2.167a1.186,1.186,0,0,0,1.263,1.083H21.48a1.186,1.186,0,0,0,1.263-1.083v-2.167A1.186,1.186,0,0,0,21.48,256Zm0,0" transform="translate(184.882 -181.423) rotate(45)"/>
  </g>
</svg>
