<svg xmlns="http://www.w3.org/2000/svg" width="237.463" height="104.888" viewBox="0 0 237.463 104.888">
  <g id="aaaaaa_1_" data-name="aaaaaa (1)" transform="translate(-61.493 384.297)">
    <path id="Path_1" data-name="Path 1" d="M92.582-384.128c-.283.2-1.754.933-3.225,1.612-1.471.707-2.744,1.329-2.829,1.414s-1.075.566-2.178,1.1a14.2,14.2,0,0,0-2.065,1.1c0,.255.99,3.507,1.867,6.138.99,3.055,2.319,7.383,2.631,8.769.17.735-.057,1.216-1.782,3.677-1.1,1.556-2.065,2.885-2.15,2.97a6.162,6.162,0,0,0-.707,1.047c-.311.509-.651.933-.764.933s-.226.141-.226.311c0,.566-1.188,1.386-1.81,1.245-1.018-.226-9.787-.792-12.87-.82L64.1-354.66l-.792,3.394c-1.9,8.2-2.065,9.136-1.584,9.617a1.552,1.552,0,0,0,.735.424,9.654,9.654,0,0,1,2.687,1.443,1.39,1.39,0,0,0,.792.255c.283,0,.509.085.509.226,0,.113.424.368.933.594a19.933,19.933,0,0,1,1.952,1.075,4.534,4.534,0,0,0,1.414.651,2.618,2.618,0,0,1,1.075.566,2.56,2.56,0,0,0,1.216.566c.255,0,.481.113.481.283,0,.141.255.283.566.283s.566.113.566.255.4.4.849.594c.622.255.849.537.877,1.1a29.864,29.864,0,0,0,.707,4.639c.057.339.17,1.047.255,1.612s.2,1.329.283,1.7c.481,2.489.481,2.433-.226,2.913a9.587,9.587,0,0,0-1.075.82c-.226.2-1.216,1.018-2.178,1.782-.99.792-2.715,2.178-3.847,3.111-1.1.933-2.517,2.065-3.14,2.546-.594.453-1.386,1.1-1.754,1.414l-.679.566,1.075,1.923c3.111,5.516,5.855,9.815,6.279,9.815a27.175,27.175,0,0,0,3.423-1.16c1.641-.622,3.819-1.443,4.865-1.839,1.047-.368,2.6-.99,3.451-1.358a6.712,6.712,0,0,1,1.584-.594,4.515,4.515,0,0,0,1.273-.453c1.216-.537,1.3-.537,2.037-.057.764.453,5.148,3.734,5.459,4.045.085.085.651.509,1.273.99,2.235,1.641,2.065.849,1.98,9.476-.028,4.271,0,8.061.085,8.4.141.764.283.792,7.241,2.348,2.772.622,5.12,1.188,5.233,1.273.255.141,1.16-.877,1.16-1.358a2.03,2.03,0,0,1,.424-.877,2.251,2.251,0,0,0,.424-1.075c0-.283.141-.509.283-.509.17,0,.283-.17.283-.368a5.36,5.36,0,0,1,.537-1.5c.283-.594.82-1.754,1.16-2.517.339-.792,1.047-2.319,1.527-3.394.509-1.1,1.075-2.433,1.3-2.97a10.929,10.929,0,0,1,.424-1.047,29.45,29.45,0,0,1,4.384-.792c1.782-.226,1.923-.255,4.865-.792l2.206-.4,3.507,3.564c1.923,1.952,4.5,4.639,5.714,5.912a27.452,27.452,0,0,0,2.744,2.659c.424.226.933-.113,2.857-1.81,1.273-1.131,3.14-2.772,4.13-3.621,2.433-2.121,2.574-2.291,2.489-2.687-.057-.2-2.829-4.5-6.166-9.561-5.148-7.835-6.2-9.221-6.76-9.249a16.092,16.092,0,0,0-3.536,1.386A47.776,47.776,0,0,1,126.3-307.3a23,23,0,0,1-3.96,1.047,4.231,4.231,0,0,0-1.018.255,38.583,38.583,0,0,1-7.354.509,33.894,33.894,0,0,1-9.476-1.754c-3.027-1.386-3.96-1.867-4.045-2.065a.621.621,0,0,0-.509-.226c-.226,0-.4-.141-.4-.283a.291.291,0,0,0-.1-.208.291.291,0,0,0-.216-.075c-.792,0-4.7-3.677-6.7-6.279a37.287,37.287,0,0,1-4.582-8.967,37.153,37.153,0,0,1-1.329-13.181,43.587,43.587,0,0,1,1.81-7.779c1.075-2.517,3.168-6.308,3.536-6.449a.544.544,0,0,0,.226-.453,18.167,18.167,0,0,1,2.546-3.055,32.706,32.706,0,0,1,10.183-7.3,13.223,13.223,0,0,0,2.433-1.245,20.218,20.218,0,0,0,1.216-4.13c.509-2.093.962-4.017,1.047-4.271.141-.537-.651-1.471-1.018-1.245a8.272,8.272,0,0,1-1.612.424c-.735.17-1.612.339-1.952.424-.453.113-1.612-.933-5.516-4.978C94.222-384.071,93.458-384.694,92.582-384.128Z" fill="#fff"/>
    <path id="Path_2" data-name="Path 2" d="M196.028-284.953c0,.594.085.877.17.651.283-.735,1.018-1.414,1.556-1.414.453,0,.509.283.509,2.97,0,2.489-.085,3-.481,3.225s-.057.283,1.329.283,1.725-.057,1.358-.283c-.424-.226-.509-.735-.509-3.225,0-2.687.057-2.97.509-2.97.537,0,1.273.679,1.556,1.414.085.226.17-.057.17-.651l.028-1.047H196Z" transform="translate(-96.46 -70.492)" fill="#fff"/>
    <path id="Path_3" data-name="Path 3" d="M222.909-285.617c.4.226.481.707.481,3.083s-.085,2.857-.481,3.083-.057.283,1.329.283,1.725-.057,1.358-.283c-.368-.2-.509-.651-.509-1.669v-1.414h2.546v1.414c0,1.018-.141,1.471-.481,1.669-.4.226-.057.283,1.329.283s1.725-.057,1.358-.283c-.424-.226-.509-.707-.509-3.083s.085-2.857.509-3.083c.368-.226.028-.283-1.358-.283s-1.725.057-1.329.283c.339.2.481.651.481,1.527v1.273h-2.546v-1.273c0-.877.141-1.329.509-1.527.368-.226.028-.283-1.358-.283S222.513-285.843,222.909-285.617Z" transform="translate(-115.647 -70.564)" fill="#fff"/>
    <path id="Path_4" data-name="Path 4" d="M253.06-285.689c.4.226.481.707.481,3.083s-.085,2.857-.481,3.083c-.368.226.311.283,2.489.311,2.885,0,3.027-.028,3.2-.651.311-1.188.17-1.273-.651-.453a2.4,2.4,0,0,1-1.839.82h-1.018v-1.556c0-1.358.057-1.556.566-1.556a1.361,1.361,0,0,1,.962.764c.424.764.424.764.424-.9s0-1.669-.424-.933a1.338,1.338,0,0,1-.962.792c-.481,0-.566-.2-.566-1.414,0-1.414,0-1.414.933-1.414a2.136,2.136,0,0,1,2.121,1.273c.283.481.311.424.339-.509V-286h-3.027C253.4-285.972,252.693-285.915,253.06-285.689Z" transform="translate(-137.312 -70.492)" fill="#fff"/>
    <path id="Path_5" data-name="Path 5" d="M195-250.655c0,.17.311.311.707.311,1.3,0,2.659.764,2.885,1.612.311,1.047.283,27.551,0,29.3-.283,1.641-1.018,2.461-2.178,2.461-.453,0-.849.113-.849.283,0,.339-.339.339,5.8.311,6.025,0,5.516.028,5.516-.283,0-.141-.651-.311-1.443-.368a3.247,3.247,0,0,1-2.037-.764c-.594-.594-.622-.877-.707-6.958l-.113-6.364,2.093.028c4.356.028,3.847-.339,8.627,6.053,2.348,3.111,4.7,6.053,5.2,6.562,1.7,1.584,3.281,2.093,6.987,2.235a14.025,14.025,0,0,0,3.734-.17c.509-.311.17-.453-1.612-.651a9.49,9.49,0,0,1-4.809-2.319,92.966,92.966,0,0,1-8.2-9.7l-2.319-2.97,1.641-1.81a19.028,19.028,0,0,0,2.574-3.705,8.679,8.679,0,0,0,1.075-4.328c.141-3.055-.509-4.78-2.489-6.562-2.348-2.121-3.225-2.291-12.22-2.4C197.461-250.909,195-250.853,195-250.655Zm14.6,1.952a8.833,8.833,0,0,1,3.338,3.423,12.729,12.729,0,0,1,.764,2.715c.735,4.271-.594,8.288-3.2,9.646-.9.481-5.233.537-6.789.085l-1.075-.283v-8.033c0-9.249-.368-8.344,3.394-8.231a7.746,7.746,0,0,1,3.568.681Z" transform="translate(-95.743 -95.683)" fill="#fff"/>
    <path id="Path_6" data-name="Path 6" d="M505.231-187.175a89.964,89.964,0,0,1-.255,9.221,2.211,2.211,0,0,1-1.047.622c-.566.17.141.226,2.433.226,2.206,0,2.942-.085,2.319-.226a3.2,3.2,0,0,1-1.273-.537c-.283-.283-.679-6.421-.735-11.512l-.028-2.263,7.439,7.439c4.073,4.1,7.581,7.439,7.779,7.439.255,0,.339-1.98.339-8.571,0-4.7.085-8.825.17-9.193.113-.339.4-.622.651-.622a2,2,0,0,0,.877-.283c.283-.2-.594-.255-2.687-.255-2.715,0-3,.057-2.206.339a4.584,4.584,0,0,1,1.216.651c.226.226.368,2.6.453,7.071l.141,6.76-7.5-7.581c-4.1-4.158-7.609-7.552-7.779-7.552C505.316-196,505.231-193.228,505.231-187.175Z" transform="translate(-317.156 -135.035)" fill="#fff"/>
    <path id="Path_7" data-name="Path 7" d="M590.264-194.323c-4.328,11.484-6.11,16.01-6.534,16.462a3.6,3.6,0,0,1-1.471.735c-.679.17,0,.226,2.15.226,1.726,0,2.8-.085,2.4-.2-.99-.283-.99-1.131.085-4.13l.905-2.546,2.857-.085,2.857-.085,1.216,3.111a14.11,14.11,0,0,1,1.047,3.536c-.17.4.2.453,2.715.424,2.008-.028,2.6-.085,1.98-.255-1.839-.424-1.782-.283-5.884-10.579a78.417,78.417,0,0,0-3.451-8C590.971-195.766,590.575-195.143,590.264-194.323Zm1.641,5.855a23.508,23.508,0,0,1,1.018,3.338,29.862,29.862,0,0,1-4.328.113c-.226-.028.057-1.216.82-3.423a28.2,28.2,0,0,1,1.245-3.309c.056.028.594,1.527,1.24,3.281Z" transform="translate(-373.281 -135.241)" fill="#fff"/>
    <path id="Path_8" data-name="Path 8" d="M725.227-195.038c-.028.141-.2.877-.339,1.612-.283,1.471-.057,1.782.453.651.453-.99,1.386-1.273,4.186-1.273H731.9l-.028,7.835c-.028,4.328-.113,8.175-.226,8.571a1.356,1.356,0,0,1-.877.877c-.4.113.82.2,2.687.2,2.291,0,3.083-.085,2.433-.226a2.2,2.2,0,0,1-1.16-.566c-.226-.339-.566-8.74-.566-13.634v-3.055h2.376c3,0,3.762.255,4.073,1.471.255.9.255.877.481-.707a6.962,6.962,0,0,0,.085-1.754C740.9-195.321,725.312-195.321,725.227-195.038Z" transform="translate(-475.658 -135.573)" fill="#fff"/>
    <path id="Path_9" data-name="Path 9" d="M797.084-195.416a4.228,4.228,0,0,0-2.15,5.261c.339,1.273,1.725,2.829,4.865,5.459,2.065,1.754,2.744,3.309,2.093,4.837a3.392,3.392,0,0,1-3.649,2.093,3.531,3.531,0,0,1-3.366-2.489c-.424-1.188-.453-1.216-.651-.509a8.388,8.388,0,0,0-.085,1.98c.113,1.612.764,1.952,3.734,1.952,3.621,0,5.4-1.16,6.11-4.017a4.245,4.245,0,0,0,0-2.517c-.339-1.273-1.216-2.235-5.629-6.2-1.584-1.443-1.725-1.669-1.725-2.744,0-1.725.905-2.659,2.715-2.829,1.81-.141,3.253.566,3.649,1.81.509,1.527.707,1.386.707-.537,0-1.839,0-1.867-.877-2.037A10.026,10.026,0,0,0,797.084-195.416Z" transform="translate(-525.396 -134.969)" fill="#fff"/>
    <path id="Path_10" data-name="Path 10" d="M309.166-194.346c-3.819,1.1-6.166,4.384-6.166,8.684a9.159,9.159,0,0,0,5.176,8.514,9.553,9.553,0,0,0,7.439-.085,9.121,9.121,0,0,0,4.045-4.469,7.611,7.611,0,0,0,.735-4.1,7.334,7.334,0,0,0-.792-4.158,8.211,8.211,0,0,0-7.185-4.611A11.588,11.588,0,0,0,309.166-194.346Zm3.875,1.16c2.121.9,3.819,4.724,3.819,8.627,0,5.035-2.065,7.637-5.516,6.987-2.942-.566-5.318-5.742-4.809-10.494.453-4.357,3.2-6.506,6.507-5.12Z" transform="translate(-173.194 -136.038)" fill="#fff"/>
    <path id="Path_11" data-name="Path 11" d="M376.053-194.622c1.527.453,1.556.566,1.556,8.769a67.337,67.337,0,0,1-.283,8.316,1.883,1.883,0,0,1-.9.962c-.4.141.651.283,3.027.368,3.79.17,5.657-.085,7.043-.99a5.129,5.129,0,0,0,1.923-6.336,6.993,6.993,0,0,0-3.083-2.942l-.651-.255.962-1.273c1.584-2.037,1.669-3.847.339-5.431-1.018-1.216-2.4-1.5-6.845-1.471C376.336-194.9,375.459-194.82,376.053-194.622Zm7.185.99a4.655,4.655,0,0,1,1.443,3.762c0,2.319-1.018,3.055-4.017,2.885l-.792-.028v-3.338a17.155,17.155,0,0,1,.2-3.536c.365-.367,2.515-.2,3.166.255Zm.566,8.146a5.47,5.47,0,0,1,2.517,4.469c.2,2.715-.849,3.9-3.451,3.9-1.584,0-2.631-.453-2.829-1.245a35.891,35.891,0,0,1-.17-4.243v-3.649l1.527.17a9.022,9.022,0,0,1,2.4.6Z" transform="translate(-225.457 -135.819)" fill="#fff"/>
    <path id="Path_12" data-name="Path 12" d="M650.284-194.589c.707.2,1.1.481,1.188.9.057.311.17,3.253.226,6.534.113,6.279.255,7.156,1.556,8.882,2.291,3.083,9.278,3.168,11.937.141,1.245-1.414,1.7-3.366,1.7-7.156,0-1.81.085-4.526.2-6.081.17-2.772.17-2.772,1.047-3.168.792-.339.622-.368-2.235-.368-2.574.028-2.942.085-2.121.311a2.661,2.661,0,0,1,1.188.594,49.425,49.425,0,0,1,.226,6.166c0,6.562-.283,8.146-1.7,9.5a5.45,5.45,0,0,1-5.283,1.247,5.45,5.45,0,0,1-3.74-3.934c-.368-1.725-.424-12.446-.057-13.012a2.21,2.21,0,0,1,1.047-.622c.566-.17-.283-.226-2.716-.226C649.86-194.872,649.407-194.815,650.284-194.589Z" transform="translate(-421.958 -135.824)" fill="#fff"/>
    <path id="Path_13" data-name="Path 13" d="M438.742-193.309c-3.677,1.329-5.742,4.384-5.742,8.571a9.267,9.267,0,0,0,5.148,8.486,9.623,9.623,0,0,0,7.467-.085,9.121,9.121,0,0,0,4.045-4.469,7.611,7.611,0,0,0,.735-4.1,7.333,7.333,0,0,0-.792-4.158,8.267,8.267,0,0,0-7.326-4.639A7.638,7.638,0,0,0,438.742-193.309Zm4.3,1.018c3.819,1.612,5.233,11.314,2.093,14.539a4.193,4.193,0,0,1-5.6.17c-1.952-1.641-3.366-6.166-3-9.589C436.988-191.527,439.732-193.677,443.042-192.291Z" transform="translate(-266.422 -136.651)" fill="#fff"/>
    <path id="Path_14" data-name="Path 14" d="M848.477-166.572a8.006,8.006,0,0,0-4.893,5.091c-.255,1.047-1.527,2.291-4.045,3.96a19.742,19.742,0,0,0-2.178,1.612c-.2.311,1.556,3.366,2.037,3.564a9.425,9.425,0,0,0,2.546-1.273c3.875-2.4,4.384-2.6,6.76-2.6,2.348,0,3.225-.311,4.441-1.612a11,11,0,0,0,2.206-4.526c0-1.16-.509-.933-2.291.9-1.1,1.16-1.98,1.839-2.376,1.839a4.767,4.767,0,0,1-3.055-2.206l-.537-.9,1.725-1.952a15.469,15.469,0,0,0,1.725-2.121C850.542-167.081,849.637-166.968,848.477-166.572Z" transform="translate(-556.395 -155.864)" fill="#fff"/>
    <path id="Path_15" data-name="Path 15" d="M408.775-122.334c-61.89.141-59.8.113-59.8,1.3a1.04,1.04,0,0,0,.566.679c.4.2,20.338.283,65.878.226,51.2-.057,65.284,0,65,.255a16.614,16.614,0,0,1-2.489,1.443c-2.008,1.047-2.263,1.1-4.1.99-1.669-.085-2.121-.028-3.083.537a7.811,7.811,0,0,0-3.14,4.384c-.424,1.216-.453,1.556-.141,1.839.283.311.707,0,2.15-1.584l1.81-1.952,1.3.481c1.216.481,2.687,2.037,2.687,2.857a9.512,9.512,0,0,1-1.7,1.98c-2.517,2.489-2.178,2.913,1.16,1.5,1.754-.735,2.885-1.952,3.932-4.243.9-2.037,1.839-2.942,5.318-5.176a6.708,6.708,0,0,0,1.754-1.386,9.448,9.448,0,0,0-.905-1.7,18.807,18.807,0,0,1-1.216-2.008C483.394-122.589,491.257-122.532,408.775-122.334Z" transform="translate(-206.161 -187.769)" fill="#fff"/>
  </g>
</svg>
