<svg xmlns="http://www.w3.org/2000/svg" width="120.417" height="53.189" viewBox="0 0 120.417 53.189">
  <g id="mysecond" transform="translate(-61.493 384.297)">
    <path id="Path_1" data-name="Path 1" d="M77.258-384.211c-.144.1-.889.473-1.635.817s-1.391.674-1.435.717-.545.287-1.1.558a7.2,7.2,0,0,0-1.047.558c0,.129.5,1.778.947,3.113.5,1.549,1.176,3.744,1.334,4.447.086.373-.029.617-.9,1.865-.558.789-1.047,1.463-1.09,1.506a3.126,3.126,0,0,0-.359.531c-.158.258-.33.473-.387.473s-.115.071-.115.158c0,.287-.6.7-.918.631-.516-.115-4.963-.4-6.526-.416l-1.2-.014-.4,1.721c-.963,4.158-1.047,4.633-.8,4.877a.787.787,0,0,0,.373.215,4.894,4.894,0,0,1,1.363.732.7.7,0,0,0,.4.129c.144,0,.258.043.258.115s.215.187.473.3a10.118,10.118,0,0,1,.99.545,2.3,2.3,0,0,0,.717.33,1.327,1.327,0,0,1,.545.287,1.3,1.3,0,0,0,.617.287c.129,0,.244.057.244.144s.129.143.287.143.287.057.287.129.2.2.431.3c.315.129.431.272.445.558A15.143,15.143,0,0,0,69.4-356.1c.029.172.086.531.129.817s.1.674.144.862c.244,1.262.244,1.234-.115,1.477a4.865,4.865,0,0,0-.545.416c-.115.1-.617.516-1.1.9s-1.377,1.1-1.951,1.578c-.558.473-1.276,1.047-1.592,1.291s-.7.558-.889.717l-.344.287.545.975c1.578,2.8,2.969,4.977,3.184,4.977a13.783,13.783,0,0,0,1.736-.588l2.467-.933c.531-.187,1.318-.5,1.75-.689a3.4,3.4,0,0,1,.8-.3,2.289,2.289,0,0,0,.646-.23c.617-.272.659-.272,1.033-.029s2.611,1.893,2.768,2.051c.043.043.33.258.646.5,1.133.832,1.047.431,1,4.805-.014,2.166,0,4.088.043,4.26.072.387.144.4,3.672,1.191,1.406.315,2.6.6,2.654.646.129.071.588-.445.588-.689a1.029,1.029,0,0,1,.215-.445,1.142,1.142,0,0,0,.215-.545c0-.143.071-.258.144-.258s.144-.086.144-.187a2.718,2.718,0,0,1,.272-.761c.144-.3.416-.889.588-1.276s.531-1.176.774-1.721.545-1.234.659-1.506a5.54,5.54,0,0,1,.215-.531,14.936,14.936,0,0,1,2.223-.4c.9-.115.975-.129,2.467-.4l1.119-.2,1.778,1.807c.975.99,2.282,2.352,2.9,3a13.921,13.921,0,0,0,1.391,1.348c.215.115.473-.057,1.449-.918.646-.574,1.592-1.406,2.094-1.836,1.234-1.076,1.305-1.162,1.262-1.363-.029-.1-1.435-2.282-3.127-4.848-2.611-3.973-3.141-4.676-3.428-4.69a8.163,8.163,0,0,0-1.793.7,24.219,24.219,0,0,1-3.871,1.586,11.657,11.657,0,0,1-2.008.531,2.144,2.144,0,0,0-.516.129,19.571,19.571,0,0,1-3.729.258,17.188,17.188,0,0,1-4.805-.889,9.118,9.118,0,0,1-2.051-1.047.315.315,0,0,0-.258-.115c-.115,0-.2-.072-.2-.144a.148.148,0,0,0-.048-.105.148.148,0,0,0-.11-.038c-.4,0-2.383-1.865-3.4-3.184a18.907,18.907,0,0,1-2.324-4.547,18.84,18.84,0,0,1-.674-6.684,22.1,22.1,0,0,1,.918-3.945,16.49,16.49,0,0,1,1.793-3.27.276.276,0,0,0,.115-.23,9.211,9.211,0,0,1,1.291-1.549,16.585,16.585,0,0,1,5.164-3.7,6.7,6.7,0,0,0,1.234-.631,10.253,10.253,0,0,0,.617-2.094c.258-1.061.488-2.037.531-2.166.072-.272-.33-.746-.516-.631a4.194,4.194,0,0,1-.817.215c-.373.086-.817.172-.99.215-.23.057-.817-.473-2.8-2.524C78.09-384.182,77.7-384.5,77.258-384.211Z" transform="translate(0)"/>
    <path id="Path_2" data-name="Path 2" d="M196.014-285.469c0,.3.043.445.086.33.143-.373.516-.717.789-.717.23,0,.258.144.258,1.506,0,1.262-.043,1.521-.244,1.635s-.029.144.674.144.875-.029.689-.144c-.215-.115-.258-.373-.258-1.635,0-1.363.029-1.506.258-1.506.272,0,.646.344.789.717.043.115.086-.029.086-.33l.014-.531H196Z" transform="translate(-115.214 -84.197)"/>
    <path id="Path_3" data-name="Path 3" d="M222.833-285.756c.2.115.244.359.244,1.563s-.043,1.449-.244,1.563-.029.143.674.143.875-.029.689-.143-.258-.33-.258-.846v-.717h1.291v.717c0,.516-.072.746-.244.846-.2.115-.029.143.674.143s.875-.029.689-.143c-.215-.115-.258-.359-.258-1.563s.043-1.449.258-1.563c.187-.115.014-.143-.689-.143s-.875.029-.674.143c.172.1.244.33.244.774v.646h-1.291v-.646c0-.445.072-.674.258-.774s.014-.143-.689-.143S222.632-285.871,222.833-285.756Z" transform="translate(-138.131 -84.283)"/>
    <path id="Path_4" data-name="Path 4" d="M253.013-285.842c.2.115.244.359.244,1.563s-.043,1.449-.244,1.563.158.143,1.262.158c1.463,0,1.535-.014,1.623-.33.158-.6.086-.646-.33-.23a1.217,1.217,0,0,1-.933.416h-.516v-.789c0-.689.029-.789.287-.789a.69.69,0,0,1,.488.387c.215.387.215.387.215-.459s0-.846-.215-.473a.679.679,0,0,1-.488.4c-.244,0-.287-.1-.287-.717,0-.717,0-.717.473-.717a1.083,1.083,0,0,1,1.076.646c.143.244.158.215.172-.258V-286H254.3C253.186-285.986,252.827-285.957,253.013-285.842Z" transform="translate(-164.008 -84.197)"/>
    <path id="Path_5" data-name="Path 5" d="M195-250.762c0,.086.158.158.359.158a1.563,1.563,0,0,1,1.463.817c.158.531.144,13.971,0,14.858-.144.832-.516,1.248-1.1,1.248-.23,0-.431.057-.431.144,0,.172-.172.172,2.941.158,3.055,0,2.8.014,2.8-.144,0-.072-.33-.158-.732-.187a1.646,1.646,0,0,1-1.033-.387c-.3-.3-.315-.445-.359-3.528l-.057-3.227,1.061.014c2.209.014,1.951-.172,4.375,3.069,1.191,1.578,2.383,3.069,2.637,3.328.862.8,1.664,1.061,3.543,1.133a7.112,7.112,0,0,0,1.894-.086c.258-.158.086-.23-.817-.33A4.812,4.812,0,0,1,209.1-234.9a47.145,47.145,0,0,1-4.158-4.919l-1.176-1.506.832-.918a9.649,9.649,0,0,0,1.305-1.879,4.4,4.4,0,0,0,.545-2.195,3.645,3.645,0,0,0-1.262-3.328c-1.191-1.076-1.635-1.162-6.2-1.217A19.756,19.756,0,0,0,195-250.762Zm7.4.99a4.479,4.479,0,0,1,1.693,1.736,6.455,6.455,0,0,1,.387,1.377c.373,2.166-.3,4.2-1.623,4.891a8.329,8.329,0,0,1-3.443.043l-.545-.144v-4.074c0-4.69-.187-4.231,1.721-4.174a3.928,3.928,0,0,1,1.809.345Z" transform="translate(-114.357 -114.286)"/>
    <path id="Path_6" data-name="Path 6" d="M504.5-191.526a45.614,45.614,0,0,1-.129,4.676,1.121,1.121,0,0,1-.531.315c-.287.086.071.115,1.234.115,1.119,0,1.492-.043,1.176-.115a1.622,1.622,0,0,1-.646-.272,38.183,38.183,0,0,1-.373-5.838l-.014-1.148,3.772,3.772c2.065,2.079,3.844,3.772,3.945,3.772.129,0,.172-1,.172-4.346,0-2.383.043-4.475.086-4.662s.2-.315.33-.315a1.015,1.015,0,0,0,.445-.144c.143-.1-.3-.129-1.363-.129-1.377,0-1.521.029-1.119.172a2.326,2.326,0,0,1,.617.33,16.529,16.529,0,0,1,.23,3.586l.071,3.428-3.8-3.844c-2.079-2.109-3.858-3.83-3.945-3.83C504.541-196,504.5-194.6,504.5-191.526Z" transform="translate(-378.815 -161.287)"/>
    <path id="Path_7" data-name="Path 7" d="M586.194-195.008c-2.195,5.824-3.1,8.119-3.313,8.348a1.825,1.825,0,0,1-.746.373c-.344.086,0,.115,1.09.115.875,0,1.42-.043,1.217-.1-.5-.144-.5-.574.043-2.094l.459-1.291,1.449-.043,1.449-.043.617,1.578a7.156,7.156,0,0,1,.531,1.793c-.086.2.1.23,1.377.215,1.018-.014,1.318-.043,1-.129-.933-.215-.9-.143-2.984-5.365a39.757,39.757,0,0,0-1.75-4.057C586.552-195.74,586.351-195.424,586.194-195.008Zm.832,2.969a11.923,11.923,0,0,1,.516,1.693,15.144,15.144,0,0,1-2.195.057c-.115-.014.029-.617.416-1.736a14.3,14.3,0,0,1,.631-1.678c.028.014.3.774.629,1.664Z" transform="translate(-445.852 -161.534)"/>
    <path id="Path_8" data-name="Path 8" d="M725-195.142c-.014.072-.1.445-.172.817-.143.746-.029.9.23.33.23-.5.7-.646,2.123-.646h1.2l-.014,3.973c-.014,2.195-.057,4.146-.115,4.346a.688.688,0,0,1-.445.445c-.2.057.416.1,1.363.1,1.162,0,1.563-.043,1.234-.115a1.116,1.116,0,0,1-.588-.287c-.115-.172-.287-4.432-.287-6.914v-1.549h1.2c1.521,0,1.908.129,2.065.746.129.459.129.445.244-.359a3.528,3.528,0,0,0,.043-.889A75.767,75.767,0,0,0,725-195.142Z" transform="translate(-568.133 -161.93)"/>
    <path id="Path_9" data-name="Path 9" d="M795.622-195.76a2.144,2.144,0,0,0-1.09,2.668c.172.646.875,1.435,2.467,2.768,1.047.889,1.391,1.678,1.061,2.453a1.72,1.72,0,0,1-1.85,1.061,1.791,1.791,0,0,1-1.707-1.262c-.215-.6-.23-.617-.33-.258a4.251,4.251,0,0,0-.043,1c.057.817.387.99,1.893.99,1.836,0,2.738-.588,3.1-2.037a2.153,2.153,0,0,0,0-1.276c-.172-.646-.617-1.133-2.854-3.141-.8-.732-.875-.846-.875-1.391a1.317,1.317,0,0,1,1.377-1.435,1.661,1.661,0,0,1,1.85.918c.258.774.358.7.358-.272,0-.933,0-.947-.445-1.033A5.084,5.084,0,0,0,795.622-195.76Z" transform="translate(-627.539 -161.198)"/>
    <path id="Path_11" data-name="Path 11" d="M375.966-194.762c.774.23.789.287.789,4.447a34.148,34.148,0,0,1-.144,4.217.955.955,0,0,1-.459.488c-.2.072.33.143,1.535.187,1.922.086,2.869-.043,3.571-.5a2.6,2.6,0,0,0,.975-3.213,3.546,3.546,0,0,0-1.563-1.492l-.33-.129.488-.646A2,2,0,0,0,381-194.16c-.516-.617-1.217-.761-3.471-.746C376.11-194.9,375.665-194.863,375.966-194.762Zm3.643.5a2.361,2.361,0,0,1,.732,1.908c0,1.176-.516,1.549-2.037,1.463l-.4-.014V-192.6a8.7,8.7,0,0,1,.1-1.793,2.211,2.211,0,0,1,1.605.129Zm.287,4.131a2.774,2.774,0,0,1,1.276,2.266c.1,1.377-.431,1.978-1.75,1.978-.8,0-1.334-.23-1.435-.631a18.207,18.207,0,0,1-.086-2.152v-1.85l.774.086a4.574,4.574,0,0,1,1.218.3Z" transform="translate(-269.289 -162.224)"/>
    <path id="Path_12" data-name="Path 12" d="M650.087-194.742c.359.1.558.244.6.459.029.158.086,1.65.115,3.313.057,3.184.129,3.629.789,4.5,1.162,1.563,4.7,1.606,6.053.072.631-.717.862-1.707.862-3.629,0-.918.043-2.3.1-3.084.086-1.406.086-1.406.531-1.606.4-.172.315-.187-1.133-.187-1.305.014-1.492.043-1.076.158a1.349,1.349,0,0,1,.6.3,25.062,25.062,0,0,1,.115,3.127c0,3.328-.144,4.131-.862,4.817a2.764,2.764,0,0,1-2.679.633,2.764,2.764,0,0,1-1.9-2,39.1,39.1,0,0,1-.029-6.6,1.121,1.121,0,0,1,.531-.315c.287-.086-.144-.115-1.377-.115C649.871-194.886,649.642-194.857,650.087-194.742Z" transform="translate(-503.993 -162.23)"/>
    <path id="Path_14" data-name="Path 14" d="M842.99-166.761a4.06,4.06,0,0,0-2.481,2.582c-.129.531-.774,1.162-2.051,2.008a10.017,10.017,0,0,0-1.1.817,4.454,4.454,0,0,0,1.033,1.807,4.779,4.779,0,0,0,1.291-.646c1.965-1.217,2.223-1.318,3.428-1.318a2.478,2.478,0,0,0,2.252-.817,5.579,5.579,0,0,0,1.119-2.3c0-.588-.258-.473-1.162.459-.558.588-1,.933-1.2.933a2.417,2.417,0,0,1-1.549-1.119l-.272-.459.875-.99a7.845,7.845,0,0,0,.875-1.076C844.037-167.019,843.578-166.961,842.99-166.761Z" transform="translate(-664.566 -186.167)"/>
    <path id="Path_15" data-name="Path 15" d="M379.3-122.4c-31.384.072-30.324.057-30.324.659a.527.527,0,0,0,.287.344c.2.1,10.313.144,33.407.115,25.963-.029,33.105,0,32.961.129a8.427,8.427,0,0,1-1.262.732,2.86,2.86,0,0,1-2.079.5,2.206,2.206,0,0,0-1.563.272,3.961,3.961,0,0,0-1.592,2.223c-.215.617-.23.789-.071.933s.359,0,1.09-.8l.918-.99.659.244c.617.244,1.363,1.033,1.363,1.449a4.824,4.824,0,0,1-.862,1c-1.276,1.262-1.1,1.477.588.761a3.714,3.714,0,0,0,1.994-2.152c.459-1.033.933-1.492,2.7-2.625a3.4,3.4,0,0,0,.889-.7,4.79,4.79,0,0,0-.459-.862,9.539,9.539,0,0,1-.617-1.018C417.134-122.528,421.122-122.5,379.3-122.4Z" transform="translate(-246.24 -224.274)"/>
    <g id="knot22" transform="translate(96.764 -357.289)">
      <g id="abcd" transform="translate(0 0)">
        <path id="Path_1-2" data-name="Path 1" d="M43.991-879.9a.289.289,0,0,0-.155.157c-.007.026-.058.291-.114.588s-.1.552-.106.565-.032.032-.111.058a3.807,3.807,0,0,0-.462.193.533.533,0,0,1-.089.04.63.63,0,0,1-.1-.064c-.535-.37-.872-.6-.907-.609a.245.245,0,0,0-.16,0c-.04.011-.116.082-.485.448a5.571,5.571,0,0,0-.46.485.238.238,0,0,0-.007.189c.01.023.163.254.341.513s.326.479.328.487a.586.586,0,0,1-.056.143,3.969,3.969,0,0,0-.189.477l-.013.047-.164.031c-.089.017-.307.058-.484.09l-.431.082c-.141.029-.2.063-.235.15l-.03.063,0,.623c0,.678,0,.656.073.724s.03.05.8.2l.435.082c.02,0,.033.03.064.121a3.257,3.257,0,0,0,.181.436l.058.119-.116.17-.212.31-.212.308c-.126.183-.151.232-.151.29,0,.1.007.111.467.571.241.241.454.447.473.456a.247.247,0,0,0,.183.015,5.5,5.5,0,0,0,.565-.372l.284-.2.16-.109.16.076a3.6,3.6,0,0,0,.441.177l.052.017.032.172c.018.094.05.261.07.373a6.016,6.016,0,0,0,.138.673.288.288,0,0,0,.146.116c.064.019,1.21.019,1.274,0a.292.292,0,0,0,.146-.115,6.385,6.385,0,0,0,.15-.739c.033-.179.067-.359.075-.4l.014-.07.131-.044a3.192,3.192,0,0,0,.429-.176l.119-.058.474.327c.262.178.5.335.523.348a.246.246,0,0,0,.178.009c.04-.011.115-.081.485-.448a5.353,5.353,0,0,0,.46-.485.237.237,0,0,0,.007-.187c-.014-.033-.316-.481-.571-.846-.05-.073-.094-.138-.1-.146a.441.441,0,0,1,.052-.137,3.431,3.431,0,0,0,.181-.44.74.74,0,0,1,.044-.115l.12-.023.442-.084c.691-.128.678-.125.738-.229l.029-.05,0-.622,0-.623-.03-.064c-.043-.092-.1-.124-.276-.157-.442-.083-.542-.1-.748-.139l-.258-.049c-.027-.006-.036-.019-.069-.121a3.52,3.52,0,0,0-.187-.446l-.052-.1.335-.49c.184-.269.342-.506.351-.528a.239.239,0,0,0,0-.164c-.011-.04-.082-.118-.448-.486a5.507,5.507,0,0,0-.484-.46.251.251,0,0,0-.188-.006c-.021.008-.259.166-.528.349l-.489.335-.118-.058a3.118,3.118,0,0,0-.435-.18l-.132-.044-.014-.07c-.008-.038-.043-.218-.076-.4a3.367,3.367,0,0,0-.159-.752.287.287,0,0,0-.149-.1C45.2-879.918,44.045-879.914,43.991-879.9Zm1.039,2.787a2.013,2.013,0,0,1,.908.436,1.967,1.967,0,0,1,.7,1.578,1.778,1.778,0,0,1-.094.548,1.98,1.98,0,0,1-1.264,1.274,1.841,1.841,0,0,1-.554.1,1.975,1.975,0,0,1-1.959-1.375,1.632,1.632,0,0,1-.09-.6,1.691,1.691,0,0,1,.089-.613A2,2,0,0,1,43.7-876.9a2.188,2.188,0,0,1,.666-.222A2.618,2.618,0,0,1,45.03-877.11Z" transform="translate(-39.9 879.912)"/>
        <path id="Path_2-2" data-name="Path 2" d="M372.1-548.8a.819.819,0,0,0-.4.183.816.816,0,0,0-.288.531.818.818,0,0,0,.547.864.818.818,0,0,0,1.034-.509.817.817,0,0,0-.669-1.071A.6.6,0,0,0,372.1-548.8Z" transform="translate(-367.464 552.749)"/>
      </g>
    </g>
    <g id="knot11" transform="translate(114.512 -357.289)">
      <g id="abcd-2" data-name="abcd" transform="translate(0 0)">
        <path id="Path_1-3" data-name="Path 1" d="M43.991-879.9a.289.289,0,0,0-.155.157c-.007.026-.058.291-.114.588s-.1.552-.106.565-.032.032-.111.058a3.807,3.807,0,0,0-.462.193.533.533,0,0,1-.089.04.63.63,0,0,1-.1-.064c-.535-.37-.872-.6-.907-.609a.245.245,0,0,0-.16,0c-.04.011-.116.082-.485.448a5.571,5.571,0,0,0-.46.485.238.238,0,0,0-.007.189c.01.023.163.254.341.513s.326.479.328.487a.586.586,0,0,1-.056.143,3.969,3.969,0,0,0-.189.477l-.013.047-.164.031c-.089.017-.307.058-.484.09l-.431.082c-.141.029-.2.063-.235.15l-.03.063,0,.623c0,.678,0,.656.073.724s.03.05.8.2l.435.082c.02,0,.033.03.064.121a3.257,3.257,0,0,0,.181.436l.058.119-.116.17-.212.31-.212.308c-.126.183-.151.232-.151.29,0,.1.007.111.467.571.241.241.454.447.473.456a.247.247,0,0,0,.183.015,5.5,5.5,0,0,0,.565-.372l.284-.2.16-.109.16.076a3.6,3.6,0,0,0,.441.177l.052.017.032.172c.018.094.05.261.07.373a6.016,6.016,0,0,0,.138.673.288.288,0,0,0,.146.116c.064.019,1.21.019,1.274,0a.292.292,0,0,0,.146-.115,6.385,6.385,0,0,0,.15-.739c.033-.179.067-.359.075-.4l.014-.07.131-.044a3.192,3.192,0,0,0,.429-.176l.119-.058.474.327c.262.178.5.335.523.348a.246.246,0,0,0,.178.009c.04-.011.115-.081.485-.448a5.353,5.353,0,0,0,.46-.485.237.237,0,0,0,.007-.187c-.014-.033-.316-.481-.571-.846-.05-.073-.094-.138-.1-.146a.441.441,0,0,1,.052-.137,3.431,3.431,0,0,0,.181-.44.74.74,0,0,1,.044-.115l.12-.023.442-.084c.691-.128.678-.125.738-.229l.029-.05,0-.622,0-.623-.03-.064c-.043-.092-.1-.124-.276-.157-.442-.083-.542-.1-.748-.139l-.258-.049c-.027-.006-.036-.019-.069-.121a3.52,3.52,0,0,0-.187-.446l-.052-.1.335-.49c.184-.269.342-.506.351-.528a.239.239,0,0,0,0-.164c-.011-.04-.082-.118-.448-.486a5.507,5.507,0,0,0-.484-.46.251.251,0,0,0-.188-.006c-.021.008-.259.166-.528.349l-.489.335-.118-.058a3.118,3.118,0,0,0-.435-.18l-.132-.044-.014-.07c-.008-.038-.043-.218-.076-.4a3.367,3.367,0,0,0-.159-.752.287.287,0,0,0-.149-.1C45.2-879.918,44.045-879.914,43.991-879.9Zm1.039,2.787a2.013,2.013,0,0,1,.908.436,1.967,1.967,0,0,1,.7,1.578,1.778,1.778,0,0,1-.094.548,1.98,1.98,0,0,1-1.264,1.274,1.841,1.841,0,0,1-.554.1,1.975,1.975,0,0,1-1.959-1.375,1.632,1.632,0,0,1-.09-.6,1.691,1.691,0,0,1,.089-.613A2,2,0,0,1,43.7-876.9a2.188,2.188,0,0,1,.666-.222A2.618,2.618,0,0,1,45.03-877.11Z" transform="translate(-39.9 879.912)"/>
        <path id="Path_2-3" data-name="Path 2" d="M372.1-548.8a.819.819,0,0,0-.4.183.816.816,0,0,0-.288.531.818.818,0,0,0,.547.864.818.818,0,0,0,1.034-.509.817.817,0,0,0-.669-1.071A.6.6,0,0,0,372.1-548.8Z" transform="translate(-367.464 552.749)"/>
      </g>
    </g>
  </g>
</svg>
