<svg xmlns="http://www.w3.org/2000/svg" xmlns:xlink="http://www.w3.org/1999/xlink" width="1124.675" height="770.768" viewBox="0 0 1124.675 770.768">
  <defs>
    <linearGradient id="linear-gradient" x1="0.5" y1="1" x2="0.5" gradientUnits="objectBoundingBox">
      <stop offset="0" stop-color="gray" stop-opacity="0.251"/>
      <stop offset="0.535" stop-color="gray" stop-opacity="0.122"/>
      <stop offset="1" stop-color="gray" stop-opacity="0.102"/>
    </linearGradient>
  </defs>
  <g id="mysvg22" transform="translate(0 -0.001)">
    <path id="Path_1" data-name="Path 1" d="M1098.474,502.768c-37.663,47.884-23.031,117.837.9,173.86,8.013,18.757,17.076,38.6,13.695,58.717-4.134,24.6-26.088,42.584-49.137,52.116-42.018,17.377-92.3,13.236-130.906-10.782-33.365-20.756-57.259-54.51-91.193-74.321-56.788-33.154-129.072-20.634-190.736,2.2-43.626,16.157-91.323,37.169-134.672,20.284-30.5-11.881-51.588-40.8-63.076-71.453-5.547-14.8-9.573-30.819-20.164-42.55-6.3-6.974-14.515-11.924-22.933-16.1-76.872-38.115-173.96-17.7-248.625-59.978-50.426-28.55-82.709-82.406-97-138.563s-12.627-115.036-9-172.87c2.579-41.1,7.206-84.978,33.468-116.7,27.78-33.555,75.458-46.028,118.552-39.655s82.155,29.11,116.52,55.885c42.948,33.462,82.778,75.131,135.509,88.686,35.91,9.231,73.685,4.182,110.722,2.433,61.916-2.923,123.858,3.578,185.433,10.7,58.947,6.815,118.321,14.315,174.477,33.49,39.74,13.57,71.6,38.2,109.125,55.412,24.46,11.217,51.133,14.315,74.292,28.6,28.528,17.6,54.683,48.213,47.373,84.035C1154.147,460.271,1118.463,477.353,1098.474,502.768Z" transform="translate(-37.662 -65.366)" fill="#ff0004" opacity="0.1"/>
    <path id="Path_2" data-name="Path 2" d="M772.706,212.225s-60.541-17.93-64.541,33.07,16,135,0,162-73.093,66.01-43.047,69.5,45.047,8.5,36.047,26.5-56,35-46,48,15,29,5,45-45,26-39,37,28,17,17,29-42.888,39.3-30.444,39.148" transform="translate(-37.662 -65.366)" fill="none" stroke="#535461" stroke-miterlimit="10" stroke-width="3"/>
    <rect id="Rectangle_1" data-name="Rectangle 1" width="153.612" height="71.24" rx="12.97" transform="translate(682.842 112.881)" fill="#ff0004"/>
    <rect id="Rectangle_2" data-name="Rectangle 2" width="129.123" height="1.336" transform="translate(695.087 173.188)" opacity="0.1"/>
    <rect id="Rectangle_3" data-name="Rectangle 3" width="129.123" height="48.978" transform="translate(695.087 124.012)" opacity="0.3"/>
    <g id="lefteye22">
      <circle id="Ellipse_1" data-name="Ellipse 1" cx="17.81" cy="17.81" r="17.81" transform="translate(707.331 131.713)" opacity="0.1"/>
    </g>
    <g id="righteye22">
      <circle id="righteye" cx="17.81" cy="17.81" r="17.81" transform="translate(776.345 131.713)" opacity="0.1"/>
    </g>
    <rect id="Rectangle_4" data-name="Rectangle 4" width="26.714" height="15.588" transform="translate(746.29 184.119)" fill="#ff0004"/>
    <rect id="Rectangle_5" data-name="Rectangle 5" width="111.313" height="89.05" transform="translate(703.992 195.253)" fill="#ff0004"/>
    <rect id="Rectangle_6" data-name="Rectangle 6" width="115.766" height="11.131" transform="translate(701.765 302.113)" fill="#ff0004"/>
    <path id="Path_3" data-name="Path 3" d="M720.689,339.96v51.2h20.036V324.376H720.689Z" fill="#ff0004"/>
    <path id="Path_4" data-name="Path 4" d="M780.8,324.376v66.788h20.036V324.376Z" fill="#ff0004"/>
    <rect id="Rectangle_7" data-name="Rectangle 7" width="20.036" height="15.584" transform="translate(720.689 324.376)" opacity="0.3"/>
    <rect id="Rectangle_8" data-name="Rectangle 8" width="20.036" height="20.036" transform="translate(720.689 353.317)" opacity="0.3"/>
    <rect id="Rectangle_9" data-name="Rectangle 9" width="20.036" height="6.679" transform="translate(720.689 384.485)" opacity="0.3"/>
    <rect id="Rectangle_10" data-name="Rectangle 10" width="20.036" height="15.584" transform="translate(780.798 324.376)" opacity="0.3"/>
    <rect id="Rectangle_11" data-name="Rectangle 11" width="20.036" height="20.036" transform="translate(780.798 353.317)" opacity="0.3"/>
    <rect id="Rectangle_12" data-name="Rectangle 12" width="20.036" height="6.679" transform="translate(780.798 384.485)" opacity="0.3"/>
    <g id="lefthand22">
      <path id="Path_5" data-name="Path 5" d="M726.492,280.656v20.591a30.118,30.118,0,0,0-14.8,7.135,35.012,35.012,0,0,0-8.811,12.92,65.629,65.629,0,0,0-4.339,19.722,112.764,112.764,0,0,0,1.232,26.458H677.51a151.975,151.975,0,0,1,.583-31.932,84.744,84.744,0,0,1,7.145-25.308c6.45-13.528,15.623-20.867,23.683-24.853A43.739,43.739,0,0,1,726.492,280.656Z" transform="translate(-37.662 -65.366)" fill="#ff0004"/>
      <path id="Path_6" data-name="Path 6" d="M726.492,280.656v20.591a30.118,30.118,0,0,0-14.8,7.135l-2.77-22.993A43.74,43.74,0,0,1,726.492,280.656Z" transform="translate(-37.662 -65.366)" opacity="0.3"/>
      <path id="Path_7" data-name="Path 7" d="M702.88,321.3a65.634,65.634,0,0,0-4.339,19.722l-20.448-5.474a84.743,84.743,0,0,1,7.145-25.308Z" transform="translate(-37.662 -65.366)" opacity="0.3"/>
    </g>
    <g id="righthand22">
      <path id="Path_8" data-name="Path 8" d="M868.128,280.656v20.591a30.119,30.119,0,0,1,14.8,7.135,35.012,35.012,0,0,1,8.811,12.92,65.631,65.631,0,0,1,4.339,19.722,112.767,112.767,0,0,1-1.232,26.458h22.262a151.966,151.966,0,0,0-.583-31.932,84.747,84.747,0,0,0-7.145-25.308c-6.45-13.528-15.623-20.867-23.683-24.853a43.739,43.739,0,0,0-17.569-4.733Z" transform="translate(-37.662 -65.366)" fill="#ff0004"/>
      <path id="Path_9" data-name="Path 9" d="M868.128,280.656v20.591a30.119,30.119,0,0,1,14.8,7.135l2.77-22.993a43.74,43.74,0,0,0-17.57-4.733Z" transform="translate(-37.662 -65.366)" opacity="0.3"/>
      <path id="Path_10" data-name="Path 10" d="M891.74,321.3a65.634,65.634,0,0,1,4.339,19.722l20.448-5.474a84.743,84.743,0,0,0-7.145-25.308Z" transform="translate(-37.662 -65.366)" opacity="0.3"/>
    </g>
    <rect id="Rectangle_13" data-name="Rectangle 13" width="26.714" height="1.845" transform="translate(746.29 184.119)" opacity="0.1"/>
    <path id="Path_11" data-name="Path 11" d="M854.944,276.485v37.283a7.768,7.768,0,0,1-2.07-5.284V281.765a7.755,7.755,0,0,1,2.07-5.279Z" transform="translate(-37.662 -65.366)" opacity="0.1"/>
    <path id="Path_12" data-name="Path 12" d="M742.049,278.944v27.91a7.76,7.76,0,0,1-2.075,4.722V274.221a7.76,7.76,0,0,1,2.075,4.722Z" transform="translate(-37.662 -65.366)" opacity="0.1"/>
    <rect id="Rectangle_14" data-name="Rectangle 14" width="100.18" height="1.319" transform="translate(709.559 284.305)" opacity="0.1"/>
    <rect id="Rectangle_15" data-name="Rectangle 15" width="48.976" height="1.022" transform="translate(707.331 313.247)" opacity="0.1"/>
    <rect id="Rectangle_16" data-name="Rectangle 16" width="48.976" height="1.022" transform="translate(760.763 313.247)" opacity="0.1"/>
    <rect id="Rectangle_17" data-name="Rectangle 17" width="7.666" height="65.928" transform="translate(712.794 46.953)" fill="#ff0004"/>
    <rect id="Rectangle_18" data-name="Rectangle 18" width="7.666" height="65.928" transform="translate(800.698 46.953)" fill="#ff0004"/>
    <circle id="Ellipse_3" data-name="Ellipse 3" cx="8.688" cy="8.688" r="8.688" transform="translate(707.683 38.776)" opacity="0.1"/>
    <circle id="Ellipse_4" data-name="Ellipse 4" cx="8.688" cy="8.688" r="8.688" transform="translate(707.683 38.265)" fill="#ff0004"/>
    <circle id="Ellipse_5" data-name="Ellipse 5" cx="8.688" cy="8.688" r="8.688" transform="translate(796.099 38.776)" opacity="0.1"/>
    <circle id="Ellipse_6" data-name="Ellipse 6" cx="8.688" cy="8.688" r="8.688" transform="translate(796.099 38.265)" fill="#ff0004"/>
    <rect id="Rectangle_19" data-name="Rectangle 19" width="74" height="9" transform="translate(834.343 116.67) rotate(-17.351)" fill="#ff0004"/>
    <path id="Path_14" data-name="Path 14" d="M974.087,494.311s-38.724-7.745-49.05-18.071-56.795-28.4-61.958-15.49-69.7,56.795-25.816,64.54,103.263,10.326,116.171,5.163S974.087,494.311,974.087,494.311Z" transform="translate(-37.662 -65.366)" fill="#a8a8a8"/>
    <path id="Path_15" data-name="Path 15" d="M837.263,520.494c43.887,7.745,103.263,10.326,116.171,5.163,9.83-3.932,16.661-22.824,19.362-31.616.817.174,1.291.269,1.291.269s-7.745,30.979-20.653,36.142-72.284,2.582-116.171-5.163c-12.668-2.236-16.291-7.486-14.927-14.13C823.419,515.495,827.833,518.83,837.263,520.494Z" transform="translate(-37.662 -65.366)" opacity="0.2"/>
    <path id="Path_16" data-name="Path 16" d="M1060.083,156.7a11.375,11.375,0,0,0-3.2-4.441c-10.39-9.471-27.2-6.6-40.1-12.385-2.972-1.333-6.021-3.181-9.248-2.675-4.506.707-8.7,5.838-12.625,3.561l.281.857c-.094-.046-.188-.092-.281-.146l2.89,8.8c1.109,3.379,2.279,6.857,4.437,9.67a25.319,25.319,0,0,0,6.123,42.112c.136.294.271.59.4.889.122.055.248.1.372.156a29.574,29.574,0,0,1,1.907,6.131c-3.344.462-9.173,4.16-14.908,9.621l-11.467-.392a37.5,37.5,0,0,1-20.6-7l-34.288-24.651a11.476,11.476,0,0,0-6.57,2.9c-4.258-4.436-7.871-9.071-7.564-11.786,0,0-15.946-29.844-21.744-14.922s10.872,30.555,10.872,30.555l10.575,13.7a57.654,57.654,0,0,0-.79,7.262c13.047,14.922,58.709,28.423,58.709,28.423l7.12.345c.015.131.027.241.04.35a24.252,24.252,0,0,0-.637,5.7c0,.276.009.564.014.853,0,.189-.017.38-.014.568.362,23.8,3.624,96.639,3.624,96.639.635-.283,1.29-.542,1.957-.785l-.508,6.47s-30.442,4.263-52.911,12.79-23.194,18.475-23.194,18.475V472.13c-6.42,3.294-16.546,7.622-21.744,5.306-5.643-2.515-8.741-.4-9.3,1.8h0a2.8,2.8,0,0,0-.025,1.326l.007.027a2.377,2.377,0,0,0,.216.563l.022.042a2.256,2.256,0,0,0,.383.5c2.174,2.132,49.287,20.607,60.159,17.765a7.491,7.491,0,0,0,.985-.332c.1-.043.2-.1.3-.148.2-.1.4-.187.592-.3.112-.066.212-.146.32-.218.163-.109.329-.214.481-.335.106-.084.2-.181.3-.271.14-.125.282-.246.413-.381.095-.1.18-.208.27-.312.123-.142.249-.281.363-.432.082-.109.156-.227.233-.34.11-.16.221-.318.322-.486.069-.116.131-.239.2-.359.1-.178.2-.356.285-.542.057-.12.108-.246.162-.369.086-.2.172-.395.25-.6.046-.121.086-.246.129-.369.076-.218.151-.436.218-.661.035-.117.065-.236.1-.355.066-.24.13-.481.187-.727.025-.109.047-.221.071-.331.056-.262.109-.526.156-.794.017-.1.032-.2.048-.3.046-.286.089-.574.125-.865.01-.083.019-.167.029-.251.036-.312.068-.624.094-.94.005-.066.01-.132.015-.2q.039-.505.063-1.013a1.042,1.042,0,0,1,.006-.136q.023-.543.03-1.085v-.068a59.5,59.5,0,0,0-1.4-12.6h0l2.63-74.784a407.773,407.773,0,0,0,42.65-1.565l1.56,35.679s0,23.449,7.973,34.108c6.823,9.122,14.707,49.465,16.839,60.911-2.93,5.585-8.533,12.492-18.289,12.279,0,0-18.358-1.587-17.322,3.462v.009a2.6,2.6,0,0,0,.115.387l.012.033a3.543,3.543,0,0,0,.2.423l.017.028a4.7,4.7,0,0,0,.254.4l.059.085c.107.149.224.3.357.458l.033.038c.122.143.258.289.4.439l.122.125c.164.165.337.332.529.506,9.422,8.527,64.508,9.948,64.508,9.948v-.421c-.032-2.467-.36-15.415-3.659-25.161h.764s-7.973-71.769-14.5-80.3c0,0-1.733-37.843,2.179-61.56.24-.087.483-.172.72-.261,18.272-6.824,19.569-23.631,17.687-35.98,3.457,1.111,5.507,1.872,5.507,1.872s-.063-.537-.181-1.487l.181.066s-.349-2.256-.922-5.779c-1.307-9.683-3.84-26.6-6.536-34.593-.435-1.756-.853-3.257-1.24-4.395a75.11,75.11,0,0,1-3.191-14.761,174.923,174.923,0,0,1-1.12-19.573,187.861,187.861,0,0,1,2-26.112c1.107-7.552,2.1-16.141,2.019-22.139a29.516,29.516,0,0,0-.436-6.238c-.968-4.428-5.239-7.308-9.681-9.14-.286-.118-.579-.215-.868-.325.108-1.679.25-3.58.433-5.586a4.775,4.775,0,0,0,3.694.748c1.909-.418,3.279-2.012,4.5-3.511,6.424-7.89,13.02-16.114,15.488-25.915a55.994,55.994,0,0,0,1.358-13.344v-.737a14.505,14.505,0,0,0-.582-4.982Z" transform="translate(-37.662 -65.366)" fill="url(#linear-gradient)"/>
    <path id="Path_17" data-name="Path 17" d="M1001.594,195.164s9.733,14.6,7.647,21.551,22.941,2.781,22.941,2.781.7-27.112,5.561-33.369S1001.594,195.164,1001.594,195.164Z" transform="translate(-37.662 -65.366)" fill="#f7c4a7"/>
    <path id="Path_18" data-name="Path 18" d="M937.29,204.549s-20.16-16.684-19.465-22.941c0,0-15.294-29.2-20.855-14.6S907.4,196.9,907.4,196.9l19.465,25.722Z" transform="translate(-37.662 -65.366)" fill="#f7c4a7"/>
    <path id="Path_19" data-name="Path 19" d="M916.782,466.285s-18.77,11.818-26.417,8.342-10.428,2.086-8.342,4.171,47.272,20.16,57.7,17.38,5.124-25.553,5.124-25.553Z" transform="translate(-37.662 -65.366)" fill="#535461"/>
    <path id="Path_20" data-name="Path 20" d="M1016.193,517.033s-4.519,19.117-20.16,18.77c0,0-23.636-2.086-14.6,6.257s61.871,9.733,61.871,9.733,0-28.5-9.733-34.759S1016.193,517.033,1016.193,517.033Z" transform="translate(-37.662 -65.366)" fill="#535461"/>
    <path id="Path_21" data-name="Path 21" d="M987.691,382.168l2.086,48.663s0,22.941,7.647,33.369,16.684,62.566,16.684,62.566h26.417s-7.647-70.213-13.9-78.555c0,0-2.781-61.871,6.952-75.775Z" transform="translate(-37.662 -65.366)" fill="#575988"/>
    <path id="Path_22" data-name="Path 22" d="M987.691,382.168l2.086,48.663s0,22.941,7.647,33.369,16.684,62.566,16.684,62.566h26.417s-7.647-70.213-13.9-78.555c0,0-2.781-61.871,6.952-75.775Z" transform="translate(-37.662 -65.366)" opacity="0.1"/>
    <path id="Path_23" data-name="Path 23" d="M1042.61,338.371s15.989,38.235-13.208,49.358-82.031,9.733-82.031,9.733L944.59,478.1s-32.674,4.171-33.369-6.257V383.558s.7-9.733,22.246-18.075,50.748-12.513,50.748-12.513l1.39-18.075Z" transform="translate(-37.662 -65.366)" fill="#575988"/>
    <path id="Path_24" data-name="Path 24" d="M1016.991,212.415a33.266,33.266,0,0,1,16.334,2.309c4.26,1.792,8.357,4.61,9.285,8.942,1.1,5.131-.12,16.638-1.518,26.372a181.636,181.636,0,0,0-.848,46.085c.717,6.386,1.7,11.955,3.061,14.441,4.171,7.647,8.342,43.8,8.342,43.8s-45.882-17.38-68.823-6.952c0,0-3.128-71.256-3.476-94.545-.269-18.033,22.593-38.583,30.24-39.278C1014.07,213.179,1012.538,212.877,1016.991,212.415Z" transform="translate(-37.662 -65.366)" opacity="0.1"/>
    <path id="Path_25" data-name="Path 25" d="M1016.991,211.025a33.265,33.265,0,0,1,16.334,2.309c4.26,1.792,8.357,4.609,9.285,8.942,1.1,5.131-.12,16.638-1.518,26.372a181.636,181.636,0,0,0-.848,46.085,74.754,74.754,0,0,0,3.061,14.441c3.128,9.385,8.342,43.8,8.342,43.8s-45.882-17.38-68.823-6.952c0,0-3.128-71.256-3.476-94.545-.269-18.033,22.593-38.583,30.24-39.278C1014.07,211.789,1012.538,211.487,1016.991,211.025Z" transform="translate(-37.662 -65.366)" fill="#e14b5a"/>
    <path id="Path_26" data-name="Path 26" d="M1029.4,249.388l-49.358-2.781s-3.141-24.2,3.984-23.95l48.85,1.7S1043.305,236.875,1029.4,249.388Z" transform="translate(-37.662 -65.366)" opacity="0.1"/>
    <path id="Path_27" data-name="Path 27" d="M1029.4,248l-56.31-2.781s-43.8-13.208-56.31-27.807c0,0,.7-25.722,14.6-27.112l32.887,24.117a35.507,35.507,0,0,0,19.76,6.852l48.85,1.7S1043.305,235.485,1029.4,248Z" transform="translate(-37.662 -65.366)" fill="#e14b5a"/>
    <path id="Path_28" data-name="Path 28" d="M1031.835,198.292c.826-6.592,3.816-8.779,5.909-11.47,4.866-6.257-36.149,9.037-36.149,9.037a73.739,73.739,0,0,1,5.544,10.229,24.923,24.923,0,0,0,10.445,2.285C1023.631,208.372,1027.509,201.863,1031.835,198.292Z" transform="translate(-37.662 -65.366)" opacity="0.1"/>
    <circle id="Ellipse_7" data-name="Ellipse 7" cx="25.027" cy="25.027" r="25.027" transform="translate(954.895 92.258)" fill="#f7c4a7"/>
    <path id="Path_29" data-name="Path 29" d="M1001.78,165.109c-2.665-2.911-3.946-6.794-5.155-10.551l-2.771-8.611c3.768,2.227,7.787-2.792,12.109-3.484,3.1-.5,6.019,1.313,8.87,2.617,12.374,5.66,28.495,2.851,38.46,12.116a11.123,11.123,0,0,1,3.074,4.345,14.544,14.544,0,0,1,.558,4.9,55.832,55.832,0,0,1-1.3,13.055c-2.367,9.589-8.693,17.634-14.855,25.353-1.171,1.467-2.484,3.026-4.315,3.435-3.577.8-6.345-3.068-7.729-6.461a68.739,68.739,0,0,1-4.033-13.952,18.281,18.281,0,0,0-1.652-5.9c-2.154-3.819-7.464-7.432-10.693-10.39C1009.17,168.676,1004.745,168.347,1001.78,165.109Z" transform="translate(-37.662 -65.366)" opacity="0.1"/>
    <path id="Path_30" data-name="Path 30" d="M1001.78,164.414c-2.665-2.911-3.946-6.794-5.155-10.551l-2.771-8.611c3.768,2.227,7.787-2.792,12.109-3.484,3.1-.5,6.019,1.313,8.87,2.617,12.374,5.66,28.495,2.851,38.46,12.116a11.123,11.123,0,0,1,3.074,4.345,14.544,14.544,0,0,1,.558,4.9,55.832,55.832,0,0,1-1.3,13.055c-2.367,9.589-8.693,17.634-14.855,25.353-1.171,1.467-2.484,3.026-4.315,3.435-3.577.8-6.345-3.068-7.729-6.461a68.756,68.756,0,0,1-4.033-13.952,18.283,18.283,0,0,0-1.652-5.9c-2.154-3.819-7.464-7.432-10.693-10.39C1009.17,167.981,1004.745,167.652,1001.78,164.414Z" transform="translate(-37.662 -65.366)" fill="#632652"/>
    <ellipse id="Ellipse_8" data-name="Ellipse 8" cx="2.086" cy="4.519" rx="2.086" ry="4.519" transform="translate(984.441 115.547)" fill="#f7c4a7"/>
    <path id="Path_31" data-name="Path 31" d="M1036.7,306.045s-1.39,4.171-8.342,3.476-27.112-2.086-27.112,0" transform="translate(-37.662 -65.366)" opacity="0.1"/>
    <path id="Path_32" data-name="Path 32" d="M981.434,541.364a5.889,5.889,0,0,1-2.023-2.9c-.182.9.376,2.076,2.023,3.6,9.037,8.342,61.871,9.733,61.871,9.733s0-.246-.008-.7C1042.964,551.088,990.443,549.68,981.434,541.364Z" transform="translate(-37.662 -65.366)" fill="#fff" opacity="0.5"/>
    <path id="Path_33" data-name="Path 33" d="M939.723,494.787c-10.428,2.781-55.615-15.294-57.7-17.38a2.257,2.257,0,0,1-.578-1.016,2.5,2.5,0,0,0,.578,2.407c2.086,2.086,47.272,20.16,57.7,17.38,5.367-1.431,6.563-8.157,6.464-14.35C946.085,487.6,944.69,493.463,939.723,494.787Z" transform="translate(-37.662 -65.366)" fill="#fff" opacity="0.5"/>
    <path id="Path_34" data-name="Path 34" d="M543.159,548.066a298.414,298.414,0,0,1-4.477-41.049h0a54.99,54.99,0,0,0-38.7-50.218c-3.949-1.215-8.3-2.35-13.106-3.37-42.128-8.948-54.926-1.135-56.38-.108a54.013,54.013,0,0,1-3.189-6.966c-.072-.244-.138-.491-.206-.737a53.933,53.933,0,0,0,14.41-32.494c7.027-7.126,11.132-15.722,11.132-24.978,0-7.96-3.04-15.432-8.359-21.9V353.684a54.705,54.705,0,0,0-54.705-54.705h-4.436a54.7,54.7,0,0,0-54.7,54.7v13.56a33.959,33.959,0,0,0-7.563,20.9c0,9.061,3.938,17.489,10.7,24.525a53.942,53.942,0,0,0,15.014,33.545c.3,2.054.6,4.266.9,6.6l-75.373,15.94s-29.059,1.194-47.768,39.807c-15.839,32.688-47.367,116.725-56.669,141.744h0c-1.686,4.534-2.643,7.133-2.643,7.133s.308-.312.9-.845c-.585,1.581-.9,2.437-.9,2.437s.458-.462,1.327-1.223c-1.32,10.47-1.509,28.441,12.207,30.68,11.5,1.877,41.112,2.648,63.492,2.964v.021h1.552c14.83.2,26.113.2,26.113.2v-.2H512.355v-2.466a16.587,16.587,0,0,0-1.326-6.518q.173-.2.336-.4a13.208,13.208,0,0,1,2.5,5.79,5.816,5.816,0,0,1-.113.611l.142-.368a6.2,6.2,0,0,1-.142,1.961s30.873-79.548,30.543-127.045a80.474,80.474,0,0,0-1.132-14.967ZM350.72,463.554a55.2,55.2,0,0,1-.764-6.86v-.063C350.224,458.864,350.481,461.18,350.72,463.554ZM257.2,634.417v18.959l-11.884,2.538Z" transform="translate(-37.662 -65.366)" fill="url(#linear-gradient)"/>
    <path id="Path_35" data-name="Path 35" d="M348.466,241.263h0a54.705,54.705,0,0,1,54.705,54.705V319.3H293.76V295.969a54.705,54.705,0,0,1,54.705-54.705Z" fill="#e14b5a"/>
    <ellipse id="Ellipse_9" data-name="Ellipse 9" cx="62.356" cy="42.846" rx="62.356" ry="42.846" transform="translate(286.492 284.11)" fill="#e14b5a"/>
    <path id="Path_36" data-name="Path 36" d="M346.533,433.829s13.007,68.1,0,86.457,39.786,25.631,39.786,25.631l54.7-19.893,7.651-48.967s-33.282-18.745-26.4-56.618Z" transform="translate(-37.662 -65.366)" fill="#f7c4a7"/>
    <path id="Path_37" data-name="Path 37" d="M507.971,663.362s3.443,14.92-15.3,17.6a106.011,106.011,0,0,1-33.356-.4l-4.135-37.476h43.61Z" transform="translate(-37.662 -65.366)" fill="#f7c4a7"/>
    <path id="Path_38" data-name="Path 38" d="M176.923,644.265s-8.278,33.634,10.467,36.694,87.6,3.06,87.6,3.06V644.234l-31.172,6.658-29.271-28.081Z" transform="translate(-37.662 -65.366)" fill="#f7c4a7"/>
    <path id="Path_39" data-name="Path 39" d="M350.55,455.826l-73.259,15.493s-27.926,1.148-45.907,38.255-57,143.075-57,143.075,33.282-33.665,72.3,2.3L272.7,607.891l-5.738,74.6H468.568v-35.2s42.081,22.571,39.021,35.2c0,0,36.009-92.781,28.265-134.948a286.768,286.768,0,0,1-4.3-39.45h0a52.847,52.847,0,0,0-37.19-48.262c-3.8-1.168-7.981-2.259-12.6-3.239-43.229-9.181-54.323,0-54.323,0s-8.374,27.246-8.225,39.594c.191,15.876-22.571,26.4-22.571,26.4s-33.665-8.034-35.2-14.537S347.872,463.477,350.55,455.826Z" transform="translate(-37.662 -65.366)" opacity="0.1"/>
    <path id="Path_40" data-name="Path 40" d="M350.55,454.3l-73.259,15.493s-27.927,1.148-45.907,38.255-57,143.076-57,143.076,33.282-33.665,72.3,2.3L272.7,606.361l-5.738,74.6H468.568v-35.2s42.081,22.571,39.021,35.2c0,0,36.009-92.781,28.265-134.948a286.769,286.769,0,0,1-4.3-39.45h0a52.847,52.847,0,0,0-37.19-48.262c-3.8-1.168-7.981-2.259-12.6-3.239-43.229-9.181-54.323,0-54.323,0s-8.374,27.246-8.225,39.594c.191,15.876-22.571,26.4-22.571,26.4s-33.665-8.034-35.2-14.537S347.872,461.947,350.55,454.3Z" transform="translate(-37.662 -65.366)" fill="#575988"/>
    <path id="Path_41" data-name="Path 41" d="M425.423,451.045a51.781,51.781,0,0,1-2-27.162l-75.746,13.389s1.093,5.724,2.329,14.3a52.019,52.019,0,0,0,75.413-.528Z" transform="translate(-37.662 -65.366)" opacity="0.1"/>
    <path id="Path_42" data-name="Path 42" d="M438.346,412.023A52.027,52.027,0,0,1,334.3,413.286q-.012-.631-.012-1.262a52.045,52.045,0,0,1,29.18-46.759q2.32-1.132,4.794-2.051a52.4,52.4,0,0,1,26.8-2.487.029.029,0,0,0,.019,0,51.987,51.987,0,0,1,43.148,47.846Q438.346,410.286,438.346,412.023Z" transform="translate(-37.662 -65.366)" fill="#f7c4a7"/>
    <g id="Group11" opacity="0.1">
      <path id="Path_43" data-name="Path 43" d="M368.193,364.434a.781.781,0,0,1,.073-.046,52.009,52.009,0,0,0-33.975,48.81c0,.421,0,.842.015,1.262a11.557,11.557,0,0,0,4.667-1.121c12.686-5.918,20.3-24.032,23.282-36.664C363.327,372.154,364.352,367.058,368.193,364.434Z" transform="translate(-37.662 -65.366)"/>
      <path id="Path_44" data-name="Path 44" d="M408.017,365.9a51.6,51.6,0,0,0-12.934-3.99,16.69,16.69,0,0,1,9.288,5.834,23.787,23.787,0,0,1,2.843,5.069,52.167,52.167,0,0,0-43.758.907c3.267,7.158,13.393,11.064,20.153,13.676q11.1,4.287,22.467,7.839-3.345-2.72-6.691-5.432l15.107,2.4a26.17,26.17,0,0,0-1.055-8.905c2.876,2.332,6.732,3.114,9.872,5.1,5.888,3.711,8.336,10.872,11.546,17.047a11.01,11.01,0,0,0,3.374,4.315A52.049,52.049,0,0,0,408.017,365.9Z" transform="translate(-37.662 -65.366)"/>
    </g>
    <path id="Path_45" data-name="Path 45" d="M368.193,363.259a.774.774,0,0,1,.073-.046,52.009,52.009,0,0,0-33.975,48.81c0,.421,0,.842.015,1.262a11.557,11.557,0,0,0,4.667-1.121c12.686-5.918,20.3-24.032,23.282-36.664C363.327,370.979,364.352,365.883,368.193,363.259Z" transform="translate(-37.662 -65.366)" fill="#632652"/>
    <path id="Path_46" data-name="Path 46" d="M408.017,364.72a51.6,51.6,0,0,0-12.934-3.99,16.69,16.69,0,0,1,9.288,5.834,23.785,23.785,0,0,1,2.843,5.069,52.167,52.167,0,0,0-43.758.907c3.267,7.158,13.393,11.064,20.153,13.676q11.1,4.287,22.467,7.839-3.345-2.72-6.691-5.432l15.107,2.4a26.17,26.17,0,0,0-1.055-8.905c2.876,2.332,6.732,3.114,9.872,5.1,5.888,3.711,8.336,10.872,11.546,17.047a11.01,11.01,0,0,0,3.374,4.315,52.049,52.049,0,0,0-30.212-43.86Z" transform="translate(-37.662 -65.366)" fill="#632652"/>
    <path id="Path_47" data-name="Path 47" d="M328.362,403.443s53.558-66.565,115.532,0l-5.356-14.92s-29.074-42.464-49.732-33.282-40.933,15.685-40.933,15.685Z" transform="translate(-37.662 -65.366)" opacity="0.1"/>
    <path id="Path_48" data-name="Path 48" d="M328.362,402.268s53.558-66.565,115.532,0l-5.356-14.92s-29.074-42.464-49.732-33.282-40.933,15.685-40.933,15.685Z" transform="translate(-37.662 -65.366)" fill="#e14b5a"/>
    <path id="Path_49" data-name="Path 49" d="M284.368,545.726s-11.477,30.6,4.591,58.148S274.8,642.9,274.8,642.9" transform="translate(-37.662 -65.366)" opacity="0.1"/>
    <path id="Path_50" data-name="Path 50" d="M470.289,518.182s19.893,25.249,6.886,47.819-12.241,76.9-12.241,76.9" transform="translate(-37.662 -65.366)" opacity="0.1"/>
    <path id="Path_51" data-name="Path 51" d="M229.109,600.1H450.225a18.363,18.363,0,0,1,18.363,18.363H210.746A18.363,18.363,0,0,1,229.109,600.1Z" fill="#535461"/>
    <path id="Path_52" data-name="Path 52" d="M262.37,473.857H416.964a39,39,0,0,1,39,39v91.451H223.37V512.857A39,39,0,0,1,262.37,473.857Z" fill="#535461"/>
    <circle id="Ellipse_10" data-name="Ellipse 10" cx="13.772" cy="13.772" r="13.772" transform="translate(325.704 531.049)" fill="#fff"/>
    <path id="Path_53" data-name="Path 53" d="M331.422,372.233s52.639-52.611,109.411-.959" transform="translate(-37.662 -65.366)" fill="none" stroke="#000" stroke-miterlimit="10" stroke-width="1" opacity="0.1"/>
    <rect id="Rectangle_20" data-name="Rectangle 20" width="5.287" height="29.959" transform="translate(411.186 303.516)" fill="#6a5c99"/>
    <path id="Path_54" data-name="Path 54" d="M404.137,322.9h0a18.21,18.21,0,0,1,18.21,18.21v1.175a18.21,18.21,0,0,1-18.21,18.21h0Z" fill="#ffd037"/>
    <rect id="Rectangle_21" data-name="Rectangle 21" width="8.224" height="41.12" rx="4.112" transform="translate(400.613 321.138)" fill="#6a5c99"/>
    <rect id="Rectangle_22" data-name="Rectangle 22" width="5.287" height="29.959" transform="translate(285.206 334.062) rotate(180)" fill="#6a5c99"/>
    <path id="Path_55" data-name="Path 55" d="M311.706,388.854h0a18.21,18.21,0,0,1,18.21,18.21v1.175a18.21,18.21,0,0,1-18.21,18.21h0Z" transform="translate(603.961 749.937) rotate(180)" fill="#ffd037"/>
    <rect id="Rectangle_23" data-name="Rectangle 23" width="8.224" height="41.12" rx="4.112" transform="translate(295.779 362.845) rotate(180)" fill="#6a5c99"/>
    <path id="Path_56" data-name="Path 56" d="M448.221,336.86c-7.158-14.884-22.749-32.88-56.357-34.316V302.5l-.4.019h-.026l-11.906.567v.058c-33.386,1.537-48.9,19.462-56.039,34.3a77.157,77.157,0,0,0-7.381,32.122l4.111-.1,4.111-.094a69.963,69.963,0,0,1,6.7-28.62c9.064-18.615,25.739-28.516,49.563-29.429v-.007l10.53-.583h0c23.824.913,40.5,10.815,49.563,29.429a69.963,69.963,0,0,1,6.7,28.62l4.111.094,4.111.1a77.156,77.156,0,0,0-7.381-32.123Z" transform="translate(-37.662 -65.366)" fill="#ffd037"/>
    <rect id="Rectangle_24" data-name="Rectangle 24" width="560.778" height="150.562" transform="translate(37.615 618.704)" fill="#d6d6e3"/>
    <rect id="Rectangle_25" data-name="Rectangle 25" width="560.778" height="19.544" transform="translate(37.615 628.838)" opacity="0.1"/>
    <rect id="Rectangle_26" data-name="Rectangle 26" width="636.004" height="19.544" transform="translate(0 616.533)" fill="#d6d6e3"/>
    <path id="Path_57" data-name="Path 57" d="M473.166,633.295s24,44,84,32,31,111,31,111-9.817,58.676-2.909,58.338" transform="translate(-37.662 -65.366)" fill="none" stroke="#535461" stroke-miterlimit="10" stroke-width="3"/>
  </g>
</svg>
